<svg version="1.1" id="Layer_1" xmlns="http://www.w3.org/2000/svg" xmlns:xlink="http://www.w3.org/1999/xlink" x="0px" y="0px"
	 width="100%" viewBox="0 0 394 276" enable-background="new 0 0 394 276" xml:space="preserve">
<path fill="#2C0A36" opacity="1.000000" stroke="none" 
	d="
M284.000000,277.000000 
	C189.333328,277.000000 95.166664,277.000000 1.000000,277.000000 
	C1.000000,185.000000 1.000000,93.000000 1.000000,1.000000 
	C132.333328,1.000000 263.666656,1.000000 395.000000,1.000000 
	C395.000000,93.000000 395.000000,185.000000 395.000000,277.000000 
	C358.166656,277.000000 321.333344,277.000000 284.000000,277.000000 
M76.425034,172.823578 
	C72.326065,172.823578 68.227097,172.823578 64.129250,172.823578 
	C62.289967,181.727234 60.570152,190.052551 58.850342,198.377884 
	C58.623066,198.360779 58.395790,198.343674 58.168514,198.326553 
	C56.381016,189.819275 54.593517,181.311981 52.859852,173.060883 
	C45.797527,173.060883 39.502773,173.060883 33.125774,173.060883 
	C29.401836,190.120438 25.723442,206.971359 21.986803,224.089111 
	C25.821960,224.089111 29.234146,224.089111 32.720078,224.089111 
	C35.857281,210.088425 38.950943,196.282043 42.044605,182.475647 
	C42.622261,182.558441 43.199917,182.641220 43.777573,182.723999 
	C44.159451,183.944275 44.647751,185.142426 44.906609,186.388260 
	C47.269508,197.760437 49.924866,209.087387 51.770554,220.544205 
	C52.556122,225.420502 55.487881,224.304184 58.246746,224.267441 
	C61.116142,224.229218 64.339981,225.594360 65.173904,220.441391 
	C67.031578,208.962494 69.664627,197.608093 72.043411,186.215851 
	C72.308678,184.945480 72.972504,183.758316 73.451492,182.532578 
	C73.961517,182.567001 74.471535,182.601410 74.981560,182.635834 
	C78.051796,196.443436 81.122032,210.251038 84.198418,224.086288 
	C87.782936,224.086288 91.202606,224.086288 95.002220,224.086288 
	C91.216248,206.861160 87.495728,189.933853 83.734993,172.823578 
	C81.355446,172.823578 79.372704,172.823578 76.425034,172.823578 
M217.499985,153.096207 
	C226.164368,153.095383 234.828873,153.121262 243.493118,153.085800 
	C251.256714,153.054031 255.027649,149.268845 255.044098,141.378143 
	C255.083664,122.383095 255.077667,103.387871 255.047531,84.392784 
	C255.034729,76.325279 251.237854,72.278008 243.219193,72.257851 
	C210.727722,72.176193 178.235809,72.175087 145.744339,72.258835 
	C137.725311,72.279503 133.962433,76.319298 133.950394,84.415985 
	C133.922379,103.244453 133.925949,122.073006 133.948441,140.901489 
	C133.958694,149.487213 137.524750,153.082855 146.018021,153.088943 
	C169.511993,153.105820 193.005981,153.095673 217.499985,153.096207 
M95.742226,205.887558 
	C96.586098,220.591232 112.952148,231.322357 127.577652,220.374451 
	C127.858116,221.701477 128.132126,222.997955 128.344925,224.004776 
	C131.861572,224.004776 134.957565,224.004776 137.966141,224.004776 
	C137.966141,209.975830 137.966141,196.257202 137.966141,182.512604 
	C134.511963,182.512604 131.406693,182.512604 128.205811,182.512604 
	C128.017761,183.922363 127.857155,185.126526 127.651901,186.665344 
	C122.140846,182.446945 116.431625,180.915070 110.032364,182.721405 
	C100.620590,185.378128 95.512543,193.288635 95.742226,205.887558 
M349.441772,188.023651 
	C354.680359,188.041687 360.141571,187.681030 360.754303,194.844589 
	C362.751434,194.844589 364.355927,194.844589 365.955444,194.844589 
	C365.945953,188.208969 363.509491,184.199310 357.344818,183.193176 
	C351.882690,182.301697 346.141602,182.539597 340.583618,183.001068 
	C336.241455,183.361603 333.422638,186.195114 332.816895,190.809723 
	C332.183075,195.637711 333.802246,199.410843 338.227264,201.520554 
	C341.203369,202.939453 344.425385,203.847397 347.549652,204.949219 
	C350.833649,206.107330 354.408752,206.767441 357.320465,208.530640 
	C359.060669,209.584427 360.895660,212.514236 360.619598,214.276825 
	C360.358704,215.942398 357.589142,217.839050 355.566864,218.444427 
	C353.120117,219.176865 350.295197,218.760025 347.640747,218.660172 
	C342.676575,218.473419 338.816650,216.818237 338.609619,210.860260 
	C336.595093,210.860260 334.824707,210.860260 333.063293,210.860260 
	C332.761230,218.234238 335.370361,222.817200 341.890991,223.897415 
	C347.357849,224.803024 353.143982,224.632126 358.682312,224.002182 
	C363.657410,223.436340 366.311859,219.710022 366.932556,214.701294 
	C367.569214,209.563797 366.085968,205.421616 361.158173,203.158264 
	C358.457825,201.917984 355.606781,200.986862 352.781555,200.042267 
	C349.163940,198.832794 345.358459,198.061554 341.933014,196.461243 
	C340.542023,195.811386 339.240112,193.487778 339.213928,191.903992 
	C339.195465,190.787598 341.216675,189.151917 342.650604,188.619965 
	C344.445374,187.954208 346.571472,188.181717 349.441772,188.023651 
M247.985062,193.642853 
	C245.965332,188.388443 242.462524,184.665405 236.948944,183.079727 
	C219.543228,178.073944 206.726639,189.572617 209.562866,207.634018 
	C211.362381,219.093628 218.198166,224.991913 229.532181,224.864624 
	C240.959076,224.736313 248.236633,218.252060 249.196777,206.668823 
	C249.531250,202.634003 248.562363,198.491119 247.985062,193.642853 
M293.912354,196.504166 
	C293.962280,200.995560 293.755920,205.507645 294.116425,209.973969 
	C294.827332,218.781555 299.468323,223.878906 308.237396,224.480957 
	C312.979736,224.806564 317.836853,223.459961 321.579773,222.998672 
	C324.369476,223.617416 326.479767,224.085464 328.659851,224.569000 
	C328.659851,209.997177 328.659851,196.268600 328.659851,182.253738 
	C326.565369,182.352203 324.841919,182.433228 322.904724,182.524292 
	C322.904724,191.728088 323.041718,200.376358 322.861511,209.018021 
	C322.716583,215.970413 319.898315,218.593369 313.032257,218.811340 
	C303.077850,219.127335 300.033813,216.153336 299.956451,205.873367 
	C299.898041,198.109543 299.944916,190.344925 299.944916,182.671509 
	C297.589081,182.671509 295.872711,182.671509 293.912354,182.671509 
	C293.912354,187.208313 293.912354,191.359192 293.912354,196.504166 
M288.011810,195.350082 
	C288.356079,194.467300 289.198975,193.419250 288.969391,192.726700 
	C285.824768,183.240341 272.907074,178.947296 262.960358,183.986404 
	C255.436768,187.797913 253.357956,194.680527 253.146957,202.281219 
	C252.927139,210.199844 254.442307,217.729599 261.964478,222.202789 
	C273.099518,228.824402 289.045410,222.430862 289.619537,209.892944 
	C287.306641,210.783386 284.658234,210.973526 283.530121,212.381653 
	C278.765350,218.329285 272.967285,220.504593 265.654999,217.871201 
	C259.592224,215.687805 259.780304,209.970245 259.284149,204.918365 
	C259.044250,202.475983 259.480774,199.950577 259.751587,197.478165 
	C260.269897,192.745926 262.390289,188.950546 267.431122,188.365738 
	C272.953583,187.725052 278.807373,186.657211 282.753387,192.646393 
	C283.626984,193.972321 285.748260,194.476135 288.011810,195.350082 
M221.499298,67.265160 
	C228.160309,67.262260 234.825989,67.385590 241.478027,67.139908 
	C242.673141,67.095772 243.812027,65.529938 244.976883,64.666687 
	C243.876801,63.861038 242.865143,62.853706 241.646164,62.319248 
	C240.805801,61.950798 239.678421,62.231407 238.679321,62.231373 
	C209.204330,62.230385 179.729355,62.226093 150.254379,62.243740 
	C148.768692,62.244629 147.217026,62.214825 145.824173,62.629505 
	C145.081192,62.850704 144.037704,64.106506 144.153152,64.694397 
	C144.332230,65.606346 145.240158,66.751442 146.103470,67.061417 
	C147.293030,67.488518 148.728806,67.259995 150.059143,67.260353 
	C173.539215,67.266594 197.019302,67.264923 221.499298,67.265160 
M166.339493,213.495972 
	C166.339493,200.063217 166.339493,186.630478 166.339493,173.106659 
	C162.611221,173.106659 159.404770,173.106659 156.253036,173.106659 
	C156.253036,190.333694 156.253036,207.238449 156.253036,224.085144 
	C159.667511,224.085144 162.773758,224.085144 166.339508,224.085144 
	C166.339508,220.737106 166.339508,217.615234 166.339493,213.495972 
M141.911072,209.494446 
	C141.911072,214.293610 141.911072,219.092773 141.911072,224.063324 
	C145.443069,224.063324 148.676880,224.063324 151.975037,224.063324 
	C151.975037,210.093491 151.975037,196.400787 151.975037,182.544006 
	C148.588074,182.544006 145.504608,182.544006 141.911072,182.544006 
	C141.911072,191.336288 141.911072,199.916534 141.911072,209.494446 
M212.499817,52.030735 
	C194.536545,52.031284 176.572556,51.965023 158.611328,52.156605 
	C157.141617,52.172279 155.690659,53.945240 154.231003,54.901672 
	C155.660751,55.663559 157.086746,57.081352 158.520813,57.089569 
	C182.471039,57.226791 206.422501,57.226124 230.372787,57.093945 
	C231.834091,57.085880 233.287918,55.724537 234.745224,54.992855 
	C233.318466,54.006107 231.937271,52.256477 230.456848,52.168076 
	C224.821793,51.831566 219.154739,52.031361 212.499817,52.030735 
M169.988831,221.980545 
	C171.650208,223.017441 173.311584,224.054337 176.075562,225.779373 
	C176.075562,216.461472 176.075562,209.056244 176.075562,200.987518 
	C186.191910,200.987518 195.882217,200.987518 205.816284,200.987518 
	C205.649155,198.700363 205.532837,197.108643 205.410904,195.440002 
	C193.487457,195.440002 181.934692,195.440002 169.986374,195.440002 
	C169.986374,204.174835 169.986374,212.625198 169.988831,221.980545 
M181.503174,47.164177 
	C183.663971,47.164173 185.824768,47.164402 187.985565,47.164131 
	C198.955750,47.162766 209.927109,47.235348 220.894577,47.062267 
	C222.205734,47.041576 223.495789,45.684082 224.795639,44.946217 
	C223.507965,43.997223 222.341782,42.618484 220.900970,42.211090 
	C219.207642,41.732304 217.275879,42.095539 215.447525,42.095592 
	C199.823318,42.096043 184.198166,42.021656 168.576477,42.220016 
	C167.096222,42.238815 165.637680,43.968960 164.169067,44.904591 
	C165.625397,45.656853 167.040558,46.941700 168.546021,47.058044 
	C172.511566,47.364502 176.516357,47.163254 181.503174,47.164177 
M170.810425,172.930832 
	C170.472809,174.726685 170.135208,176.522552 169.743622,178.605545 
	C182.072769,178.605545 193.628891,178.605545 205.412140,178.605545 
	C205.412140,176.636124 205.412140,174.926941 205.412140,172.820328 
	C193.984589,172.820328 182.871292,172.820328 170.810425,172.930832 
M141.921326,176.451599 
	C144.268417,182.519669 148.787384,177.240891 152.347198,179.579376 
	C152.203033,176.636551 152.117569,174.891983 152.015030,172.798721 
	C149.209808,172.798721 146.727570,172.555145 144.339188,172.922256 
	C143.423050,173.063080 142.721100,174.597397 141.921326,176.451599 
z"/>
<path fill="#FCFBFC" opacity="1.000000" stroke="none" 
	d="
M76.907494,172.823578 
	C79.372704,172.823578 81.355446,172.823578 83.734993,172.823578 
	C87.495728,189.933853 91.216248,206.861160 95.002220,224.086288 
	C91.202606,224.086288 87.782936,224.086288 84.198418,224.086288 
	C81.122032,210.251038 78.051796,196.443436 74.981560,182.635834 
	C74.471535,182.601410 73.961517,182.567001 73.451492,182.532578 
	C72.972504,183.758316 72.308678,184.945480 72.043411,186.215851 
	C69.664627,197.608093 67.031578,208.962494 65.173904,220.441391 
	C64.339981,225.594360 61.116142,224.229218 58.246746,224.267441 
	C55.487881,224.304184 52.556122,225.420502 51.770554,220.544205 
	C49.924866,209.087387 47.269508,197.760437 44.906609,186.388260 
	C44.647751,185.142426 44.159451,183.944275 43.777573,182.723999 
	C43.199917,182.641220 42.622261,182.558441 42.044605,182.475647 
	C38.950943,196.282043 35.857281,210.088425 32.720078,224.089111 
	C29.234146,224.089111 25.821960,224.089111 21.986803,224.089111 
	C25.723442,206.971359 29.401836,190.120438 33.125774,173.060883 
	C39.502773,173.060883 45.797527,173.060883 52.859852,173.060883 
	C54.593517,181.311981 56.381016,189.819275 58.168514,198.326553 
	C58.395790,198.343674 58.623066,198.360779 58.850342,198.377884 
	C60.570152,190.052551 62.289967,181.727234 64.129250,172.823578 
	C68.227097,172.823578 72.326065,172.823578 76.907494,172.823578 
z"/>
<path fill="#03E0F3" opacity="1.000000" stroke="none" 
	d="
M216.999969,153.096222 
	C193.005981,153.095673 169.511993,153.105820 146.018021,153.088943 
	C137.524750,153.082855 133.958694,149.487213 133.948441,140.901489 
	C133.925949,122.073006 133.922379,103.244453 133.950394,84.415985 
	C133.962433,76.319298 137.725311,72.279503 145.744339,72.258835 
	C178.235809,72.175087 210.727722,72.176193 243.219193,72.257851 
	C251.237854,72.278008 255.034729,76.325279 255.047531,84.392784 
	C255.077667,103.387871 255.083664,122.383095 255.044098,141.378143 
	C255.027649,149.268845 251.256714,153.054031 243.493118,153.085800 
	C234.828873,153.121262 226.164368,153.095383 216.999969,153.096222 
M180.500000,148.061279 
	C201.139984,148.061111 221.779968,148.071701 242.419937,148.054123 
	C248.481995,148.048965 249.890671,146.709427 249.898102,140.888794 
	C249.922119,122.079803 249.925659,103.270721 249.895996,84.461739 
	C249.887085,78.825531 248.789185,77.620712 243.195480,77.612366 
	C210.737488,77.563942 178.279358,77.564636 145.821365,77.611557 
	C140.212723,77.619667 139.109268,78.818687 139.100540,84.434921 
	C139.071259,103.243904 139.075806,122.052986 139.098221,140.861984 
	C139.105209,146.727783 140.477554,148.040894 146.542603,148.054062 
	C157.528366,148.077927 168.514191,148.061111 180.500000,148.061279 
z"/>
<path fill="#FCFBFC" opacity="1.000000" stroke="none" 
	d="
M95.678917,205.476486 
	C95.512543,193.288635 100.620590,185.378128 110.032364,182.721405 
	C116.431625,180.915070 122.140846,182.446945 127.651901,186.665344 
	C127.857155,185.126526 128.017761,183.922363 128.205811,182.512604 
	C131.406693,182.512604 134.511963,182.512604 137.966141,182.512604 
	C137.966141,196.257202 137.966141,209.975830 137.966141,224.004776 
	C134.957565,224.004776 131.861572,224.004776 128.344925,224.004776 
	C128.132126,222.997955 127.858116,221.701477 127.577652,220.374451 
	C112.952148,231.322357 96.586098,220.591232 95.678917,205.476486 
M126.921120,210.029572 
	C127.258560,207.078461 127.908966,204.122040 127.859116,201.177475 
	C127.786720,196.902390 126.177078,193.428528 121.455734,192.294678 
	C115.517525,190.868576 109.312775,192.520386 107.014374,196.231705 
	C103.933250,201.206924 105.044403,209.578751 109.199409,212.694687 
	C113.534286,215.945496 122.652077,214.897095 126.921120,210.029572 
z"/>
<path fill="#02E3F5" opacity="1.000000" stroke="none" 
	d="
M348.998169,188.023651 
	C346.571472,188.181717 344.445374,187.954208 342.650604,188.619965 
	C341.216675,189.151917 339.195465,190.787598 339.213928,191.903992 
	C339.240112,193.487778 340.542023,195.811386 341.933014,196.461243 
	C345.358459,198.061554 349.163940,198.832794 352.781555,200.042267 
	C355.606781,200.986862 358.457825,201.917984 361.158173,203.158264 
	C366.085968,205.421616 367.569214,209.563797 366.932556,214.701294 
	C366.311859,219.710022 363.657410,223.436340 358.682312,224.002182 
	C353.143982,224.632126 347.357849,224.803024 341.890991,223.897415 
	C335.370361,222.817200 332.761230,218.234238 333.063293,210.860260 
	C334.824707,210.860260 336.595093,210.860260 338.609619,210.860260 
	C338.816650,216.818237 342.676575,218.473419 347.640747,218.660172 
	C350.295197,218.760025 353.120117,219.176865 355.566864,218.444427 
	C357.589142,217.839050 360.358704,215.942398 360.619598,214.276825 
	C360.895660,212.514236 359.060669,209.584427 357.320465,208.530640 
	C354.408752,206.767441 350.833649,206.107330 347.549652,204.949219 
	C344.425385,203.847397 341.203369,202.939453 338.227264,201.520554 
	C333.802246,199.410843 332.183075,195.637711 332.816895,190.809723 
	C333.422638,186.195114 336.241455,183.361603 340.583618,183.001068 
	C346.141602,182.539597 351.882690,182.301697 357.344818,183.193176 
	C363.509491,184.199310 365.945953,188.208969 365.955444,194.844589 
	C364.355927,194.844589 362.751434,194.844589 360.754303,194.844589 
	C360.141571,187.681030 354.680359,188.041687 348.998169,188.023651 
z"/>
<path fill="#03E0F3" opacity="1.000000" stroke="none" 
	d="
M248.086884,194.020233 
	C248.562363,198.491119 249.531250,202.634003 249.196777,206.668823 
	C248.236633,218.252060 240.959076,224.736313 229.532181,224.864624 
	C218.198166,224.991913 211.362381,219.093628 209.562866,207.634018 
	C206.726639,189.572617 219.543228,178.073944 236.948944,183.079727 
	C242.462524,184.665405 245.965332,188.388443 248.086884,194.020233 
M241.988174,194.960388 
	C239.060303,187.696701 232.848495,187.764404 226.544159,188.046814 
	C221.457657,188.274658 218.236084,190.946198 216.633041,195.683685 
	C214.809982,201.071442 214.605042,206.587585 217.151947,211.653793 
	C218.388779,214.114014 220.750671,216.810486 223.219727,217.712540 
	C234.768906,221.931854 243.245193,215.827835 243.328354,203.561172 
	C243.346008,200.955734 242.624573,198.345291 241.988174,194.960388 
z"/>
<path fill="#01E7F9" opacity="1.000000" stroke="none" 
	d="
M293.912354,196.007111 
	C293.912354,191.359192 293.912354,187.208313 293.912354,182.671509 
	C295.872711,182.671509 297.589081,182.671509 299.944916,182.671509 
	C299.944916,190.344925 299.898041,198.109543 299.956451,205.873367 
	C300.033813,216.153336 303.077850,219.127335 313.032257,218.811340 
	C319.898315,218.593369 322.716583,215.970413 322.861511,209.018021 
	C323.041718,200.376358 322.904724,191.728088 322.904724,182.524292 
	C324.841919,182.433228 326.565369,182.352203 328.659851,182.253738 
	C328.659851,196.268600 328.659851,209.997177 328.659851,224.569000 
	C326.479767,224.085464 324.369476,223.617416 321.579773,222.998672 
	C317.836853,223.459961 312.979736,224.806564 308.237396,224.480957 
	C299.468323,223.878906 294.827332,218.781555 294.116425,209.973969 
	C293.755920,205.507645 293.962280,200.995560 293.912354,196.007111 
z"/>
<path fill="#02E2F4" opacity="1.000000" stroke="none" 
	d="
M287.653442,195.354279 
	C285.748260,194.476135 283.626984,193.972321 282.753387,192.646393 
	C278.807373,186.657211 272.953583,187.725052 267.431122,188.365738 
	C262.390289,188.950546 260.269897,192.745926 259.751587,197.478165 
	C259.480774,199.950577 259.044250,202.475983 259.284149,204.918365 
	C259.780304,209.970245 259.592224,215.687805 265.654999,217.871201 
	C272.967285,220.504593 278.765350,218.329285 283.530121,212.381653 
	C284.658234,210.973526 287.306641,210.783386 289.619537,209.892944 
	C289.045410,222.430862 273.099518,228.824402 261.964478,222.202789 
	C254.442307,217.729599 252.927139,210.199844 253.146957,202.281219 
	C253.357956,194.680527 255.436768,187.797913 262.960358,183.986404 
	C272.907074,178.947296 285.824768,183.240341 288.969391,192.726700 
	C289.198975,193.419250 288.356079,194.467300 287.653442,195.354279 
z"/>
<path fill="#03DDF0" opacity="1.000000" stroke="none" 
	d="
M220.999329,67.265060 
	C197.019302,67.264923 173.539215,67.266594 150.059143,67.260353 
	C148.728806,67.259995 147.293030,67.488518 146.103470,67.061417 
	C145.240158,66.751442 144.332230,65.606346 144.153152,64.694397 
	C144.037704,64.106506 145.081192,62.850704 145.824173,62.629505 
	C147.217026,62.214825 148.768692,62.244629 150.254379,62.243740 
	C179.729355,62.226093 209.204330,62.230385 238.679321,62.231373 
	C239.678421,62.231407 240.805801,61.950798 241.646164,62.319248 
	C242.865143,62.853706 243.876801,63.861038 244.976883,64.666687 
	C243.812027,65.529938 242.673141,67.095772 241.478027,67.139908 
	C234.825989,67.385590 228.160309,67.262260 220.999329,67.265060 
z"/>
<path fill="#FFFFFF" opacity="1.000000" stroke="none" 
	d="
M166.339508,213.994659 
	C166.339508,217.615234 166.339508,220.737106 166.339508,224.085144 
	C162.773758,224.085144 159.667511,224.085144 156.253036,224.085144 
	C156.253036,207.238449 156.253036,190.333694 156.253036,173.106659 
	C159.404770,173.106659 162.611221,173.106659 166.339493,173.106659 
	C166.339493,186.630478 166.339493,200.063217 166.339508,213.994659 
z"/>
<path fill="#FDFDFD" opacity="1.000000" stroke="none" 
	d="
M141.911072,208.995605 
	C141.911072,199.916534 141.911072,191.336288 141.911072,182.544006 
	C145.504608,182.544006 148.588074,182.544006 151.975037,182.544006 
	C151.975037,196.400787 151.975037,210.093491 151.975037,224.063324 
	C148.676880,224.063324 145.443069,224.063324 141.911072,224.063324 
	C141.911072,219.092773 141.911072,214.293610 141.911072,208.995605 
z"/>
<path fill="#01EAFB" opacity="1.000000" stroke="none" 
	d="
M212.999725,52.030735 
	C219.154739,52.031361 224.821793,51.831566 230.456848,52.168076 
	C231.937271,52.256477 233.318466,54.006107 234.745224,54.992859 
	C233.287918,55.724537 231.834091,57.085880 230.372787,57.093945 
	C206.422501,57.226124 182.471039,57.226791 158.520813,57.089569 
	C157.086746,57.081352 155.660751,55.663559 154.231003,54.901672 
	C155.690659,53.945240 157.141617,52.172279 158.611328,52.156605 
	C176.572556,51.965023 194.536545,52.031284 212.999725,52.030735 
z"/>
<path fill="#01E7F9" opacity="1.000000" stroke="none" 
	d="
M169.987610,221.528046 
	C169.986374,212.625198 169.986374,204.174835 169.986374,195.440002 
	C181.934692,195.440002 193.487457,195.440002 205.410904,195.440002 
	C205.532837,197.108643 205.649155,198.700363 205.816284,200.987518 
	C195.882217,200.987518 186.191910,200.987518 176.075562,200.987518 
	C176.075562,209.056244 176.075562,216.461472 176.075562,225.779373 
	C173.311584,224.054337 171.650208,223.017441 169.987610,221.528046 
z"/>
<path fill="#02E5F7" opacity="1.000000" stroke="none" 
	d="
M181.004333,47.164185 
	C176.516357,47.163254 172.511566,47.364502 168.546021,47.058044 
	C167.040558,46.941700 165.625397,45.656853 164.169067,44.904587 
	C165.637680,43.968960 167.096222,42.238815 168.576477,42.220016 
	C184.198166,42.021656 199.823318,42.096043 215.447525,42.095592 
	C217.275879,42.095539 219.207642,41.732304 220.900970,42.211090 
	C222.341782,42.618484 223.507965,43.997223 224.795639,44.946213 
	C223.495789,45.684082 222.205734,47.041576 220.894577,47.062267 
	C209.927109,47.235348 198.955750,47.162766 187.985565,47.164131 
	C185.824768,47.164402 183.663971,47.164173 181.004333,47.164185 
z"/>
<path fill="#02E2F5" opacity="1.000000" stroke="none" 
	d="
M171.284210,172.875580 
	C182.871292,172.820328 193.984589,172.820328 205.412140,172.820328 
	C205.412140,174.926941 205.412140,176.636124 205.412140,178.605545 
	C193.628891,178.605545 182.072769,178.605545 169.743622,178.605545 
	C170.135208,176.522552 170.472809,174.726685 171.284210,172.875580 
z"/>
<path fill="#00EEFF" opacity="1.000000" stroke="none" 
	d="
M141.921448,175.974182 
	C142.721100,174.597397 143.423050,173.063080 144.339188,172.922256 
	C146.727570,172.555145 149.209808,172.798721 152.015030,172.798721 
	C152.117569,174.891983 152.203033,176.636551 152.347198,179.579376 
	C148.787384,177.240891 144.268417,182.519669 141.921448,175.974182 
z"/>
<path fill="#2C0B36" opacity="1.000000" stroke="none" 
	d="
M180.000000,148.061279 
	C168.514191,148.061111 157.528366,148.077927 146.542603,148.054062 
	C140.477554,148.040894 139.105209,146.727783 139.098221,140.861984 
	C139.075806,122.052986 139.071259,103.243904 139.100540,84.434921 
	C139.109268,78.818687 140.212723,77.619667 145.821365,77.611557 
	C178.279358,77.564636 210.737488,77.563942 243.195480,77.612366 
	C248.789185,77.620712 249.887085,78.825531 249.895996,84.461739 
	C249.925659,103.270721 249.922119,122.079803 249.898102,140.888794 
	C249.890671,146.709427 248.481995,148.048965 242.419937,148.054123 
	C221.779968,148.071701 201.139984,148.061111 180.000000,148.061279 
M206.207184,113.713135 
	C204.199020,115.456413 202.201019,117.211571 200.180695,118.940659 
	C195.028915,123.349792 193.920593,123.368584 188.788101,118.930092 
	C177.472900,109.144913 166.229721,99.275131 154.805130,89.619743 
	C153.645432,88.639648 151.450638,88.884323 149.736176,88.560638 
	C150.345505,90.174187 150.493500,92.307602 151.635437,93.320938 
	C163.198578,103.581871 174.888000,113.701859 186.619705,123.770851 
	C192.272354,128.622360 196.800217,128.551758 202.591660,123.574898 
	C214.191055,113.606987 225.760315,103.602455 237.206512,93.460098 
	C238.396942,92.405258 238.675613,90.321442 239.377319,88.715065 
	C237.548416,89.059700 235.220200,88.804466 233.970367,89.844795 
	C224.774017,97.499611 215.793137,105.413307 206.207184,113.713135 
z"/>
<path fill="#32103B" opacity="1.000000" stroke="none" 
	d="
M126.707870,210.367798 
	C122.652077,214.897095 113.534286,215.945496 109.199409,212.694687 
	C105.044403,209.578751 103.933250,201.206924 107.014374,196.231705 
	C109.312775,192.520386 115.517525,190.868576 121.455734,192.294678 
	C126.177078,193.428528 127.786720,196.902390 127.859116,201.177475 
	C127.908966,204.122040 127.258560,207.078461 126.707870,210.367798 
z"/>
<path fill="#2C0B37" opacity="1.000000" stroke="none" 
	d="
M242.115906,195.348770 
	C242.624573,198.345291 243.346008,200.955734 243.328354,203.561172 
	C243.245193,215.827835 234.768906,221.931854 223.219727,217.712540 
	C220.750671,216.810486 218.388779,214.114014 217.151947,211.653793 
	C214.605042,206.587585 214.809982,201.071442 216.633041,195.683685 
	C218.236084,190.946198 221.457657,188.274658 226.544159,188.046814 
	C232.848495,187.764404 239.060303,187.696701 242.115906,195.348770 
z"/>
<path fill="#02E4F6" opacity="1.000000" stroke="none" 
	d="
M206.475784,113.479301 
	C215.793137,105.413307 224.774017,97.499611 233.970367,89.844795 
	C235.220200,88.804466 237.548416,89.059700 239.377319,88.715057 
	C238.675613,90.321442 238.396942,92.405258 237.206512,93.460098 
	C225.760315,103.602455 214.191055,113.606987 202.591660,123.574898 
	C196.800217,128.551758 192.272354,128.622360 186.619705,123.770851 
	C174.888000,113.701859 163.198578,103.581871 151.635437,93.320938 
	C150.493500,92.307602 150.345505,90.174187 149.736176,88.560638 
	C151.450638,88.884323 153.645432,88.639648 154.805130,89.619743 
	C166.229721,99.275131 177.472900,109.144913 188.788101,118.930092 
	C193.920593,123.368584 195.028915,123.349792 200.180695,118.940659 
	C202.201019,117.211571 204.199020,115.456413 206.475784,113.479301 
z"/>
</svg>