<svg version="1.1" id="Layer_1" xmlns="http://www.w3.org/2000/svg" xmlns:xlink="http://www.w3.org/1999/xlink" x="0px" y="0px"
	 width="100%" viewBox="0 0 578 306" enable-background="new 0 0 578 306" xml:space="preserve">
<path fill="#36D843" opacity="1.000000" stroke="none" 
	d="
M537.000000,307.000000 
	C358.050446,307.000000 179.600876,307.000000 1.075662,307.000000 
	C1.075662,205.079315 1.075662,103.158554 1.075662,1.118898 
	C193.666626,1.118898 386.333313,1.118898 578.993896,1.118898 
	C578.993896,103.065819 578.993896,205.032913 578.990845,307.000000 
	C565.158508,307.000000 551.329224,307.000000 537.000000,307.000000 
M122.918724,175.105377 
	C122.918724,175.105377 122.847000,175.159607 122.744186,175.859741 
	C125.494186,177.710297 128.244186,179.560867 131.550354,181.795029 
	C136.100342,184.283020 140.584015,184.055328 145.744537,181.360062 
	C148.517975,179.254532 151.291412,177.149002 154.593170,174.682480 
	C155.257431,173.345734 155.921677,172.008987 156.761002,170.141998 
	C156.889969,169.792831 157.018951,169.443665 157.668655,168.671265 
	C157.706390,166.435165 157.744141,164.199051 158.007950,161.182083 
	C156.719925,157.684341 155.431885,154.186600 153.899673,150.107208 
	C152.897278,149.110947 151.894882,148.114670 150.910873,147.096710 
	C150.910873,147.096710 150.884369,147.111496 150.661911,146.542908 
	C149.970047,146.189667 149.278183,145.836411 148.101212,145.233002 
	C147.777664,145.066559 147.454117,144.900116 146.792953,144.234192 
	C140.758423,142.174164 134.755493,141.324463 128.360992,144.939178 
	C128.029694,145.103928 127.698387,145.268661 126.755943,145.461060 
	C126.192818,145.997116 125.629692,146.533173 125.024551,147.035278 
	C125.024551,147.035278 125.067513,147.068466 124.443054,147.227249 
	C123.357719,148.536575 122.272385,149.845917 120.835228,151.711380 
	C120.155006,153.089203 119.474777,154.467010 118.414070,156.053406 
	C118.307755,156.700958 118.201447,157.348526 117.965775,158.797256 
	C117.925117,159.606735 117.884453,160.416229 117.661934,161.945068 
	C116.705772,167.079941 118.102386,171.463181 122.398323,175.380463 
	C122.589806,175.312729 122.781288,175.244980 122.918724,175.105377 
M425.199982,155.266663 
	C425.199982,155.266663 424.980560,154.914871 425.080750,154.297134 
	C425.080536,153.673416 425.080292,153.049713 425.793427,152.465820 
	C427.224091,152.367203 428.654785,152.268585 430.979492,152.404663 
	C434.935638,152.430725 438.900879,152.615051 442.842529,152.388596 
	C444.061096,152.318619 445.845612,151.411652 446.293579,150.407288 
	C448.638550,145.150177 446.128387,141.537643 440.400787,141.588623 
	C438.926208,141.601730 437.453217,141.794205 435.064941,141.756424 
	C431.652374,141.919861 428.239777,142.083298 424.245697,142.462692 
	C421.838928,144.642731 419.432159,146.822769 416.408295,149.268768 
	C415.462006,151.159805 414.515717,153.050842 413.399872,155.710571 
	C413.457245,156.488174 413.514618,157.265762 413.392029,158.819534 
	C413.349213,159.878159 413.306396,160.936798 413.046936,162.769638 
	C413.059021,163.837479 413.071106,164.905319 412.967194,166.769379 
	C412.989105,167.837753 413.011047,168.906143 412.957245,170.655502 
	C413.966217,171.751846 414.975189,172.848175 416.361511,174.467072 
	C417.498779,175.427460 418.636047,176.387848 420.141968,177.900635 
	C423.445587,182.273514 427.822693,183.376465 433.784149,182.351883 
	C435.179565,182.306946 436.574982,182.262024 438.821594,182.448120 
	C441.371857,181.877167 445.787415,181.798950 446.094727,180.635544 
	C446.794006,177.988312 445.476135,174.808243 444.067505,171.713226 
	C440.384552,171.775269 436.701599,171.837326 432.181183,171.745193 
	C430.197968,171.738831 428.214783,171.732483 425.914642,170.889099 
	C427.011108,169.669876 427.968750,167.603683 429.231140,167.396774 
	C432.481171,166.864136 435.896118,166.855804 439.190308,167.185669 
	C444.299408,167.697296 444.715240,164.945587 444.817108,160.864609 
	C444.933014,156.218628 442.548859,155.553726 438.904510,155.919617 
	C437.914337,156.019043 436.927246,156.148636 435.190582,156.144165 
	C434.435760,156.173691 433.680939,156.203201 432.276031,155.971375 
	C429.953979,155.869720 427.631958,155.768066 425.199982,155.266663 
M463.150787,176.573135 
	C463.673096,177.152588 464.195404,177.732040 464.930573,178.890930 
	C465.912201,179.885254 466.893860,180.879593 468.689667,182.161316 
	C470.102081,182.138229 471.514496,182.115128 473.724884,182.266922 
	C476.247498,182.266922 478.770111,182.266922 481.292755,182.266922 
	C481.617798,181.691574 481.942841,181.116226 482.267883,180.540894 
	C480.927429,179.638748 479.586945,178.736618 477.989777,177.243820 
	C477.222015,176.487442 476.454254,175.731049 475.382812,174.329559 
	C474.951843,173.244446 474.520874,172.159332 474.863922,170.871140 
	C482.689209,167.451202 485.220795,162.559189 484.115509,152.407639 
	C483.545319,151.229919 482.975128,150.052200 482.170471,148.282623 
	C481.460724,147.523697 480.750946,146.764771 479.686584,145.484573 
	C478.811615,144.938904 477.936646,144.393234 476.529816,143.382324 
	C468.282135,142.812683 460.036865,142.187653 451.780090,141.825119 
	C451.333130,141.805511 450.789642,143.984238 450.183502,145.707291 
	C450.222900,146.086945 450.262268,146.466614 450.203735,147.200272 
	C450.203735,147.200272 450.273468,147.560867 450.030975,148.126816 
	C449.058411,151.918091 451.161560,152.477386 454.311249,152.654755 
	C460.762726,153.018036 467.194305,153.734192 473.771454,155.068878 
	C474.424927,159.124969 472.429932,160.829269 468.591766,161.044785 
	C466.977783,161.135391 465.378204,161.482513 463.224762,162.131729 
	C462.060791,165.428207 460.896851,168.724701 459.885651,172.671844 
	C460.896484,173.788818 461.907318,174.905792 463.150787,176.573135 
M338.749756,162.756454 
	C338.781494,163.826157 338.813232,164.895859 338.668365,166.645172 
	C339.472198,169.042755 340.276031,171.440338 341.475586,174.380371 
	C346.466766,178.861267 350.804474,184.822433 359.868195,182.349274 
	C362.671631,182.383957 365.497711,182.637405 368.267883,182.350677 
	C369.453003,182.228012 371.171356,181.214569 371.535889,180.204651 
	C373.615265,174.443863 371.453400,171.542847 365.400726,171.600296 
	C363.924896,171.614304 362.450714,171.806030 360.099091,171.761230 
	C357.167969,171.745651 354.236847,171.730087 351.044159,170.917511 
	C351.915314,169.697021 352.536469,167.945221 353.719910,167.388306 
	C355.257385,166.664810 357.241974,166.891510 359.933289,166.824158 
	C370.495789,166.987335 370.495789,166.987335 369.157013,156.545868 
	C363.018707,156.281021 356.880432,156.016174 350.691803,154.666428 
	C350.747925,153.945938 350.804047,153.225433 351.683960,152.511215 
	C352.776306,152.428513 353.868652,152.345825 355.866730,152.507767 
	C359.361755,152.548950 362.869904,152.784500 366.346222,152.549255 
	C368.081635,152.431839 369.758789,151.453674 371.612701,149.996964 
	C371.623962,148.165680 371.831848,146.305252 371.566376,144.514999 
	C371.426178,143.569611 370.452759,141.979538 369.869446,141.985779 
	C363.294098,142.055969 356.721466,142.379715 349.437775,142.818466 
	C346.839478,145.191422 344.241180,147.564377 341.052063,150.213531 
	C337.852203,152.125061 338.364288,155.070618 338.749054,158.801300 
	C338.794189,159.854935 338.839355,160.908569 338.749756,162.756454 
M207.242203,174.669815 
	C208.194061,175.378189 209.145935,176.086563 210.485535,177.353058 
	C213.898529,180.992325 217.616257,183.829346 223.949524,182.369553 
	C227.408752,182.396393 230.882477,182.610794 234.319138,182.345535 
	C235.479782,182.255966 237.192810,181.178253 237.549515,180.163925 
	C239.584641,174.377090 237.477829,171.575470 231.379669,171.600388 
	C229.576294,171.607758 227.773682,171.801239 225.099075,171.755539 
	C222.215515,171.608276 219.331940,171.460999 216.457275,170.642212 
	C216.344040,169.751282 216.230820,168.860367 216.291321,167.321716 
	C216.237640,166.210678 216.183945,165.099655 216.329407,163.218399 
	C216.273209,162.167267 216.216995,161.116119 216.343735,159.287308 
	C216.281921,158.496094 216.220123,157.704865 216.309555,156.076675 
	C216.244629,155.229980 216.179703,154.383301 216.314896,152.757477 
	C216.251846,151.144424 216.188782,149.531372 216.333801,147.137375 
	C216.568558,141.367157 216.301666,141.379715 208.805740,141.425095 
	C203.298874,141.458466 204.358582,144.779999 204.742661,148.877243 
	C204.793167,150.250381 204.843689,151.623520 204.760605,153.795853 
	C204.795609,154.872162 204.830612,155.948456 204.748230,157.766647 
	C204.788986,158.515381 204.829727,159.264099 204.741989,160.799652 
	C204.788559,161.857391 204.835114,162.915146 204.749451,164.770309 
	C204.791641,165.841629 204.833832,166.912964 204.730606,168.763229 
	C205.445786,170.572601 206.160980,172.381973 207.242203,174.669815 
M261.695587,182.349991 
	C262.506531,182.273163 263.317474,182.196335 264.829590,182.314636 
	C266.506592,182.193787 268.183563,182.072952 270.509430,181.746521 
	C272.889679,179.669937 275.486755,177.787933 277.580841,175.454514 
	C279.224152,173.623383 280.245605,171.234100 281.696289,168.275894 
	C281.644623,167.179550 281.592957,166.083206 281.675476,164.230118 
	C281.618866,163.467575 281.562256,162.705048 281.661926,161.127090 
	C281.608612,159.751709 281.555298,158.376343 281.652863,156.305115 
	C281.467804,154.929184 281.282776,153.553268 280.798065,151.564102 
	C276.903351,148.353470 273.008667,145.142838 268.289307,141.805283 
	C267.190674,141.846481 266.092010,141.887680 264.420380,141.769180 
	C263.236359,141.838333 262.052368,141.907471 260.015259,141.835434 
	C257.455872,141.958832 254.896469,142.082230 251.685883,142.479065 
	C248.712296,145.214859 245.738708,147.950653 242.159210,151.034637 
	C241.737839,153.015030 241.316483,154.995422 240.718781,157.643814 
	C240.783157,158.776123 240.847534,159.908432 240.780731,161.828278 
	C240.831253,162.888855 240.881790,163.949417 240.781845,165.805634 
	C241.002014,167.870178 241.222183,169.934708 241.785095,172.627609 
	C243.834290,174.419083 245.883499,176.210541 248.284637,178.572678 
	C250.817520,179.779419 253.350418,180.986160 256.709717,182.396362 
	C258.100861,182.332184 259.492035,182.268005 261.695587,182.349991 
M332.890228,157.173325 
	C332.837677,156.088501 332.785156,155.003693 332.883759,153.098831 
	C332.836365,151.709625 332.788940,150.320419 332.906738,148.069138 
	C333.057220,141.757217 332.974945,141.643372 326.833618,141.663361 
	C325.036682,141.669205 323.240448,141.875931 320.869781,142.228119 
	C317.281799,147.688614 313.693817,153.149094 309.686371,158.057083 
	C309.205109,157.562073 308.723877,157.067078 308.083008,155.962234 
	C307.193390,154.538208 306.303802,153.114182 305.201477,151.026886 
	C303.858276,148.899872 302.515076,146.772858 300.951508,143.902435 
	C297.277832,139.695480 292.610229,142.138458 287.816772,142.829163 
	C287.702209,154.923950 287.500275,167.018845 287.517487,179.113449 
	C287.524078,183.740280 291.314850,182.236359 293.846680,182.422165 
	C296.569641,182.621964 299.303406,182.703781 299.329254,178.633514 
	C299.363983,173.167694 299.637054,167.703415 300.379181,163.080658 
	C301.528687,164.728119 302.678192,166.375565 304.021149,168.718338 
	C305.944366,171.980713 307.867554,175.243088 310.362579,179.475479 
	C312.949127,174.789352 314.840759,171.362228 317.247406,167.354614 
	C317.874847,166.222931 318.502258,165.091232 319.841400,164.323288 
	C320.384430,164.900146 320.927429,165.477020 321.306458,166.849869 
	C321.380402,167.928116 321.454376,169.006348 321.213348,170.867889 
	C321.177368,172.268448 321.141388,173.668991 320.980194,175.950165 
	C321.521362,178.006851 321.442291,181.259613 322.709290,181.916641 
	C328.727722,185.037704 333.257111,181.704208 332.829102,174.273239 
	C332.801270,173.444046 332.773407,172.614838 332.986450,171.064774 
	C332.901794,167.441879 332.817169,163.818970 332.848846,159.457886 
	C332.811462,158.963379 332.774078,158.468887 332.890228,157.173325 
M179.622269,161.389542 
	C179.949478,160.403412 180.276703,159.417267 181.233154,158.783463 
	C182.817917,162.189697 184.402679,165.595932 186.104584,169.760498 
	C186.831940,171.787857 187.538727,173.822876 188.290359,175.841202 
	C190.944839,182.969162 195.165649,184.578964 202.761520,180.958069 
	C200.691040,175.806625 198.602829,170.611023 196.427689,164.663467 
	C193.978561,157.981796 191.588623,151.277222 189.019196,144.642136 
	C188.614288,143.596558 187.397339,142.865448 185.573151,141.815552 
	C183.123535,141.779739 180.672150,141.789642 178.224762,141.695862 
	C175.509872,141.591843 173.801590,142.593643 173.222900,146.037476 
	C172.780518,147.325928 172.338120,148.614395 171.498001,150.397385 
	C171.238144,151.407196 170.978271,152.417007 170.259109,153.981232 
	C169.699234,155.573120 169.139343,157.165009 168.203476,159.271210 
	C167.965698,160.075165 167.727921,160.879105 167.097748,162.215607 
	C166.430511,164.149582 165.763275,166.083542 164.728760,168.604263 
	C163.073669,172.967545 161.418579,177.330811 159.722076,181.803268 
	C170.926132,184.004654 171.774261,183.556839 175.022919,174.271118 
	C175.291687,173.502930 175.397537,172.677704 176.005615,171.325226 
	C176.625870,169.535492 177.246124,167.745758 178.240723,165.372971 
	C178.573273,164.261932 178.905807,163.150894 179.622269,161.389542 
M398.679718,166.251236 
	C398.625031,164.825546 398.570343,163.399872 398.658173,161.178513 
	C398.601868,160.105759 398.545532,159.032990 398.654327,157.076324 
	C398.749664,155.578934 398.845032,154.081543 399.636993,152.533310 
	C400.776398,152.385925 401.915833,152.238525 403.887848,152.281418 
	C405.585815,152.204010 407.283813,152.126587 409.293762,152.183228 
	C409.566925,151.800385 409.840118,151.417542 410.386078,150.175583 
	C410.448578,149.347946 410.453186,148.511093 410.583099,147.694168 
	C411.353424,142.849350 409.288635,141.036942 404.492065,141.578690 
	C401.370575,141.931244 398.194153,141.797577 394.244446,141.704346 
	C389.452271,141.665390 384.656616,141.724350 379.869171,141.553406 
	C376.617828,141.437317 375.058655,142.415756 375.099365,146.031174 
	C375.167664,152.100586 375.288086,152.444077 381.424622,152.517578 
	C383.077240,152.537384 384.730652,152.490295 386.542572,153.410034 
	C386.743439,156.573380 386.944336,159.736710 386.997772,163.722351 
	C387.056244,164.827118 387.114716,165.931870 387.041138,167.897018 
	C387.088593,169.642273 387.136078,171.387512 386.982391,173.861221 
	C386.908691,175.023422 386.916321,176.197556 386.747711,177.345810 
	C385.859955,183.391876 390.070129,182.444122 393.721222,182.650711 
	C398.029602,182.894516 399.601227,181.174530 398.662109,176.186966 
	C398.582123,174.806000 398.502167,173.425034 398.617462,171.235428 
	C398.578400,169.855164 398.539337,168.474884 398.679718,166.251236 
M85.267082,155.460175 
	C86.485329,154.533707 87.703583,153.607254 89.788673,152.528030 
	C90.355812,152.377899 90.922951,152.227768 91.636909,152.154800 
	C91.636909,152.154800 91.918449,152.006958 92.743271,152.071838 
	C94.391724,152.178543 96.066628,152.135132 97.683678,152.420044 
	C102.558113,153.278885 106.012352,151.689407 107.579895,146.319321 
	C99.791931,138.875381 86.632454,139.013321 79.589508,146.598114 
	C78.555466,147.649109 77.521423,148.700089 75.990936,150.136078 
	C75.087639,152.118607 74.184334,154.101120 72.904022,156.738052 
	C72.720520,158.503967 72.537025,160.269897 72.249840,162.819733 
	C72.552017,164.882568 72.854195,166.945389 73.214241,169.637466 
	C74.038803,170.792801 74.863373,171.948120 75.954239,173.744888 
	C81.488136,181.516129 89.187874,184.380875 98.253380,182.433167 
	C106.614853,180.636703 112.643776,175.717896 114.444199,166.287079 
	C111.406242,164.081390 108.368286,161.875702 104.865097,159.197174 
	C102.599022,158.806534 100.332954,158.415894 97.310646,157.965424 
	C94.602303,161.319473 94.870514,164.304672 98.679924,166.291733 
	C99.766830,166.640701 100.853737,166.989655 102.184082,167.416779 
	C98.827003,172.772720 94.007622,171.717148 89.089417,171.331833 
	C87.666855,170.246780 86.244286,169.161728 84.613815,167.402267 
	C83.985634,165.598343 83.357460,163.794418 83.034386,161.357376 
	C83.624916,159.547806 84.215439,157.738220 85.267082,155.460175 
z"/>
<path fill="#84E78C" opacity="1.000000" stroke="none" 
	d="
M128.862961,144.702362 
	C134.755493,141.324463 140.758423,142.174164 146.602783,144.622131 
	C142.479538,146.419373 137.290436,147.193481 139.318832,153.165573 
	C140.082306,155.413406 142.929047,158.055237 145.170395,158.423874 
	C148.046585,158.896896 151.476410,157.568298 150.909683,153.018158 
	C150.668411,151.080917 150.884338,149.086716 150.892487,147.118408 
	C151.894882,148.114670 152.897278,149.110947 153.759781,150.701935 
	C154.363983,154.923386 155.108093,158.550110 155.502899,162.255005 
	C152.627945,158.851135 148.992401,158.460358 146.513458,161.293915 
	C144.860779,163.182983 144.340271,167.060089 144.933746,169.680374 
	C145.801270,173.510590 149.092819,173.653061 152.429092,172.074310 
	C153.741913,171.453110 155.196121,171.130722 156.585938,170.672241 
	C155.921677,172.008987 155.257431,173.345734 154.072388,174.651123 
	C148.765671,174.483322 146.017776,176.889420 145.010071,181.466461 
	C140.584015,184.055328 136.100342,184.283020 131.208633,181.232147 
	C129.302460,177.218643 127.439308,174.202820 122.847000,175.159607 
	C122.847000,175.159607 122.918724,175.105377 122.861862,174.993866 
	C122.490616,174.952087 122.176224,175.021820 121.861832,175.091553 
	C118.102386,171.463181 116.705772,167.079941 118.120850,161.519257 
	C123.219086,157.473465 123.945137,154.705963 121.187050,151.155243 
	C122.272385,149.845917 123.357719,148.536575 124.696320,147.590759 
	C124.991493,149.442047 125.278381,150.972275 125.029297,152.409622 
	C124.288322,156.685440 126.950233,158.694687 130.261078,158.417191 
	C132.512741,158.228485 135.644180,156.066864 136.440552,154.028778 
	C137.522446,151.260025 137.991577,147.242767 133.041092,146.305313 
	C131.598907,146.032227 130.253006,145.250778 128.862961,144.702362 
M131.831604,168.143173 
	C131.689102,166.998215 131.525558,165.855392 131.408020,164.707886 
	C131.046921,161.182388 128.231094,159.431015 125.599701,159.789398 
	C123.295799,160.103195 120.833748,162.343033 119.349663,164.390335 
	C118.506798,165.553070 118.962143,168.300690 119.749359,169.876755 
	C121.846497,174.075363 128.616638,173.407806 131.831604,168.143173 
M144.933533,176.193375 
	C143.914352,170.564651 141.354156,168.598389 135.587341,170.265747 
	C133.640686,170.828598 131.183746,173.685577 131.054489,175.633118 
	C130.782318,179.733658 135.820068,183.599228 139.417725,182.203949 
	C141.503082,181.395187 142.861282,178.711502 144.933533,176.193375 
M142.402298,161.094696 
	C141.825165,160.515793 141.257370,159.456314 140.669189,159.444870 
	C138.608337,159.404739 135.631241,158.982269 134.713516,160.104538 
	C133.650909,161.403961 133.742508,164.513260 134.594467,166.199478 
	C135.137665,167.274567 138.674286,168.127243 139.617203,167.417328 
	C141.149323,166.263824 141.655548,163.747726 142.402298,161.094696 
z"/>
<path fill="#3D3630" opacity="1.000000" stroke="none" 
	d="
M114.442863,166.782578 
	C112.643776,175.717896 106.614853,180.636703 98.253380,182.433167 
	C89.187874,184.380875 81.488136,181.516129 76.247849,173.320755 
	C80.881645,172.539108 85.221840,172.181580 89.562027,171.824051 
	C94.007622,171.717148 98.827003,172.772720 102.184082,167.416779 
	C100.853737,166.989655 99.766830,166.640701 98.646042,165.976105 
	C103.193291,162.452560 103.100037,161.146729 98.066879,158.025238 
	C100.332954,158.415894 102.599022,158.806534 105.062576,159.856018 
	C105.575317,166.226776 106.109818,166.591599 114.442863,166.782578 
z"/>
<path fill="#37332B" opacity="1.000000" stroke="none" 
	d="
M299.807800,162.238464 
	C299.637054,167.703415 299.363983,173.167694 299.329254,178.633514 
	C299.303406,182.703781 296.569641,182.621964 293.846680,182.422165 
	C291.314850,182.236359 287.524078,183.740280 287.517487,179.113449 
	C287.500275,167.018845 287.702209,154.923950 288.245667,142.756622 
	C290.287354,145.209915 291.900116,147.735748 293.613770,150.589203 
	C294.819580,152.606689 295.924469,154.296570 297.098633,156.308685 
	C298.038391,158.144043 298.908905,159.657181 299.745605,161.291260 
	C299.659393,161.702499 299.691406,161.977921 299.807800,162.238464 
z"/>
<path fill="#332F28" opacity="1.000000" stroke="none" 
	d="
M185.987457,169.002167 
	C184.402679,165.595932 182.817917,162.189697 180.931000,158.598145 
	C180.628860,158.412811 180.617752,158.363098 180.781281,158.052917 
	C181.443466,155.924347 181.942123,154.105942 182.600464,151.994156 
	C182.892181,150.825378 183.024200,149.949997 183.404114,148.829803 
	C184.619949,146.386292 185.587891,144.187622 186.555832,141.988937 
	C187.397339,142.865448 188.614288,143.596558 189.019196,144.642136 
	C191.588623,151.277222 193.978561,157.981796 196.138428,165.288162 
	C192.561935,166.942627 189.274689,167.972397 185.987457,169.002167 
z"/>
<path fill="#3D3630" opacity="1.000000" stroke="none" 
	d="
M463.772095,161.713028 
	C465.378204,161.482513 466.977783,161.135391 468.591766,161.044785 
	C472.429932,160.829269 474.424927,159.124969 474.087097,154.485153 
	C477.623596,153.631058 480.844513,153.360703 484.065399,153.090347 
	C485.220795,162.559189 482.689209,167.451202 474.194580,170.947235 
	C472.726257,170.968353 471.927307,170.913376 471.025330,170.570831 
	C470.300842,169.495850 469.679443,168.708450 468.908386,167.674194 
	C468.161255,166.970871 467.563782,166.514374 466.746246,165.807617 
	C465.608154,164.275894 464.690125,162.994461 463.772095,161.713028 
z"/>
<path fill="#332727" opacity="1.000000" stroke="none" 
	d="
M350.148102,142.635422 
	C356.721466,142.379715 363.294098,142.055969 369.869446,141.985779 
	C370.452759,141.979538 371.426178,143.569611 371.566376,144.514999 
	C371.831848,146.305252 371.623962,148.165680 371.107422,150.455078 
	C365.388458,151.363174 360.174713,151.813141 354.960999,152.263123 
	C353.868652,152.345825 352.776306,152.428513 351.231079,152.178284 
	C350.577911,150.542313 350.377594,149.239243 350.231293,147.499969 
	C350.239563,145.587646 350.193848,144.111542 350.148102,142.635422 
z"/>
<path fill="#37332B" opacity="1.000000" stroke="none" 
	d="
M186.046021,169.381332 
	C189.274689,167.972397 192.561935,166.942627 196.181885,165.664154 
	C198.602829,170.611023 200.691040,175.806625 202.761520,180.958069 
	C195.165649,184.578964 190.944839,182.969162 188.290359,175.841202 
	C187.538727,173.822876 186.831940,171.787857 186.046021,169.381332 
z"/>
<path fill="#37332B" opacity="1.000000" stroke="none" 
	d="
M386.383698,152.473923 
	C384.730652,152.490295 383.077240,152.537384 381.424622,152.517578 
	C375.288086,152.444077 375.167664,152.100586 375.099365,146.031174 
	C375.058655,142.415756 376.617828,141.437317 379.869171,141.553406 
	C384.656616,141.724350 389.452271,141.665390 394.728180,142.150009 
	C396.234558,145.607605 397.257202,148.619537 398.019775,151.469498 
	C396.906830,150.761948 396.053986,150.216354 395.014404,149.407532 
	C392.888367,147.331512 390.949097,145.518692 388.885742,143.507416 
	C388.228607,143.095749 387.695526,142.882584 387.162476,142.669418 
	C387.076569,143.098846 386.990723,143.528290 386.891937,144.404617 
	C386.940765,147.230438 387.002502,149.609390 386.924011,152.027039 
	C386.613159,152.165283 386.479797,152.301346 386.383698,152.473923 
z"/>
<path fill="#332F28" opacity="1.000000" stroke="none" 
	d="
M175.579071,171.878983 
	C175.397537,172.677704 175.291687,173.502930 175.022919,174.271118 
	C171.774261,183.556839 170.926132,184.004654 159.722076,181.803268 
	C161.418579,177.330811 163.073669,172.967545 165.266403,168.395248 
	C169.062393,169.417160 172.320724,170.648071 175.579071,171.878983 
z"/>
<path fill="#2E2523" opacity="1.000000" stroke="none" 
	d="
M358.973450,182.104645 
	C350.804474,184.822433 346.466766,178.861267 341.444580,173.806732 
	C344.219269,169.524124 347.925537,171.681396 351.305725,171.714508 
	C354.236847,171.730087 357.167969,171.745651 360.543579,172.275970 
	C360.316528,175.895340 359.644989,179.000000 358.973450,182.104645 
z"/>
<path fill="#332F28" opacity="1.000000" stroke="none" 
	d="
M319.129669,163.959534 
	C318.502258,165.091232 317.874847,166.222931 316.719360,167.494370 
	C314.765472,166.090912 313.339630,164.547699 311.786377,162.728424 
	C311.141266,161.171432 310.623566,159.890518 310.105835,158.609589 
	C313.693817,153.149094 317.281799,147.688614 321.118652,142.545258 
	C321.484772,144.895584 321.602051,146.928772 321.602356,149.295609 
	C321.554413,151.042404 321.623413,152.455551 321.583923,154.265045 
	C321.534454,155.745956 321.593506,156.830505 321.536438,158.296997 
	C321.272186,159.721252 321.124054,160.763565 320.762787,161.947571 
	C320.076324,162.712677 319.602997,163.336105 319.129669,163.959534 
z"/>
<path fill="#37332B" opacity="1.000000" stroke="none" 
	d="
M225.970718,171.909439 
	C227.773682,171.801239 229.576294,171.607758 231.379669,171.600388 
	C237.477829,171.575470 239.584641,174.377090 237.549515,180.163925 
	C237.192810,181.178253 235.479782,182.255966 234.319138,182.345535 
	C230.882477,182.610794 227.408752,182.396393 223.723724,182.030518 
	C224.322205,178.430786 225.146454,175.170120 225.970718,171.909439 
z"/>
<path fill="#F4FDF5" opacity="1.000000" stroke="none" 
	d="
M156.673462,170.407120 
	C155.196121,171.130722 153.741913,171.453110 152.429092,172.074310 
	C149.092819,173.653061 145.801270,173.510590 144.933746,169.680374 
	C144.340271,167.060089 144.860779,163.182983 146.513458,161.293915 
	C148.992401,158.460358 152.627945,158.851135 155.544861,162.247391 
	C155.936127,162.161606 155.924271,162.077118 155.762634,162.389206 
	C156.116623,164.832367 156.632278,166.963425 157.147919,169.094498 
	C157.018951,169.443665 156.889969,169.792831 156.673462,170.407120 
z"/>
<path fill="#3D3630" opacity="1.000000" stroke="none" 
	d="
M435.979492,141.904282 
	C437.453217,141.794205 438.926208,141.601730 440.400787,141.588623 
	C446.128387,141.537643 448.638550,145.150177 446.293579,150.407288 
	C445.845612,151.411652 444.061096,152.318619 442.842529,152.388596 
	C438.900879,152.615051 434.935638,152.430725 430.782104,152.096161 
	C436.894165,150.955612 436.172699,146.285767 435.979492,141.904282 
z"/>
<path fill="#857F7C" opacity="1.000000" stroke="none" 
	d="
M76.487381,149.751083 
	C77.521423,148.700089 78.555466,147.649109 80.440933,146.691437 
	C90.120392,146.829407 98.948410,146.874069 107.776436,146.918732 
	C106.012352,151.689407 102.558113,153.278885 97.683678,152.420044 
	C96.066628,152.135132 94.391724,152.178543 92.259911,152.054245 
	C91.776550,152.036652 91.490089,152.077637 91.490089,152.077637 
	C90.922951,152.227768 90.355812,152.377899 89.074181,152.378082 
	C84.402252,151.402451 80.444817,150.576767 76.487381,149.751083 
z"/>
<path fill="#615D56" opacity="1.000000" stroke="none" 
	d="
M484.090454,152.748993 
	C480.844513,153.360703 477.623596,153.631058 474.018402,154.103241 
	C467.194305,153.734192 460.762726,153.018036 454.311249,152.654755 
	C451.161560,152.477386 449.058411,151.918091 450.573181,148.072144 
	C452.895081,148.351898 454.672974,148.962570 456.454712,148.973892 
	C465.104218,149.028885 473.754730,148.923233 482.404907,148.874466 
	C482.975128,150.052200 483.545319,151.229919 484.090454,152.748993 
z"/>
<path fill="#8D8E85" opacity="1.000000" stroke="none" 
	d="
M107.678162,146.619019 
	C98.948410,146.874069 90.120392,146.829407 80.763008,146.695374 
	C86.632454,139.013321 99.791931,138.875381 107.678162,146.619019 
z"/>
<path fill="#F4FDF5" opacity="1.000000" stroke="none" 
	d="
M150.901672,147.107559 
	C150.884338,149.086716 150.668411,151.080917 150.909683,153.018158 
	C151.476410,157.568298 148.046585,158.896896 145.170395,158.423874 
	C142.929047,158.055237 140.082306,155.413406 139.318832,153.165573 
	C137.290436,147.193481 142.479538,146.419373 146.771606,144.871857 
	C147.454117,144.900116 147.777664,145.066559 148.476364,145.623810 
	C149.529144,146.380249 150.206757,146.745865 150.884369,147.111481 
	C150.884369,147.111496 150.910873,147.096710 150.901672,147.107559 
z"/>
<path fill="#37332B" opacity="1.000000" stroke="none" 
	d="
M359.420837,182.226959 
	C359.644989,179.000000 360.316528,175.895340 360.981903,172.353363 
	C362.450714,171.806030 363.924896,171.614304 365.400726,171.600296 
	C371.453400,171.542847 373.615265,174.443863 371.535889,180.204651 
	C371.171356,181.214569 369.453003,182.228012 368.267883,182.350677 
	C365.497711,182.637405 362.671631,182.383957 359.420837,182.226959 
z"/>
<path fill="#3C4834" opacity="1.000000" stroke="none" 
	d="
M435.938721,156.264389 
	C436.927246,156.148636 437.914337,156.019043 438.904510,155.919617 
	C442.548859,155.553726 444.933014,156.218628 444.817108,160.864609 
	C444.715240,164.945587 444.299408,167.697296 439.190308,167.185669 
	C435.896118,166.855804 432.481171,166.864136 429.231140,167.396774 
	C427.968750,167.603683 427.011108,169.669876 425.709747,171.356262 
	C425.013763,171.833801 424.522644,171.844147 424.024658,171.550262 
	C424.008392,170.837494 423.998993,170.428940 424.066162,169.681793 
	C424.396942,168.213745 424.651154,167.084305 424.924500,165.948090 
	C424.943634,165.941299 424.931610,165.978806 425.392639,165.986176 
	C426.677399,165.998764 427.501190,166.014984 428.324799,166.007492 
	C436.000671,165.937637 436.287201,165.629623 436.023010,157.744690 
	C436.006500,157.250870 435.967346,156.757812 435.938721,156.264389 
z"/>
<path fill="#F4FDF5" opacity="1.000000" stroke="none" 
	d="
M128.611969,144.820770 
	C130.253006,145.250778 131.598907,146.032227 133.041092,146.305313 
	C137.991577,147.242767 137.522446,151.260025 136.440552,154.028778 
	C135.644180,156.066864 132.512741,158.228485 130.261078,158.417191 
	C126.950233,158.694687 124.288322,156.685440 125.029297,152.409622 
	C125.278381,150.972275 124.991493,149.442047 125.008545,147.511368 
	C125.067513,147.068466 125.024551,147.035278 125.342194,147.019104 
	C126.228920,146.479752 126.797997,145.956573 127.367081,145.433411 
	C127.698387,145.268661 128.029694,145.103928 128.611969,144.820770 
z"/>
<path fill="#3D3630" opacity="1.000000" stroke="none" 
	d="
M398.279877,151.631470 
	C397.257202,148.619537 396.234558,145.607605 395.127136,142.238708 
	C398.194153,141.797577 401.370575,141.931244 404.492065,141.578690 
	C409.288635,141.036942 411.353424,142.849350 410.583099,147.694168 
	C410.453186,148.511093 410.448578,149.347946 410.098083,150.720001 
	C409.533997,151.526001 409.257874,151.787567 408.981750,152.049164 
	C407.283813,152.126587 405.585815,152.204010 403.133881,152.011185 
	C401.108032,151.638779 399.836151,151.536606 398.529907,151.536713 
	C398.495514,151.638977 398.279877,151.631470 398.279877,151.631470 
z"/>
<path fill="#2E2523" opacity="1.000000" stroke="none" 
	d="
M225.534897,171.832489 
	C225.146454,175.170120 224.322205,178.430786 223.277802,181.910065 
	C217.616257,183.829346 213.898529,180.992325 210.531586,176.843857 
	C212.392319,174.907654 214.206970,173.480652 216.139954,171.875366 
	C216.258255,171.697083 216.448380,171.313736 216.448380,171.313736 
	C219.331940,171.460999 222.215515,171.608276 225.534897,171.832489 
z"/>
<path fill="#464239" opacity="1.000000" stroke="none" 
	d="
M311.913757,163.004486 
	C313.339630,164.547699 314.765472,166.090912 316.461853,167.784607 
	C314.840759,171.362228 312.949127,174.789352 310.362579,179.475479 
	C307.867554,175.243088 305.944366,171.980713 304.219086,168.191498 
	C306.915924,166.111267 309.414856,164.557877 311.913757,163.004486 
z"/>
<path fill="#37332B" opacity="1.000000" stroke="none" 
	d="
M437.970398,182.217087 
	C436.574982,182.262024 435.179565,182.306946 433.384338,181.832672 
	C432.995911,178.175430 433.007294,175.037399 433.018646,171.899384 
	C436.701599,171.837326 440.384552,171.775269 444.539307,172.233002 
	C446.240417,178.567978 443.362549,181.327759 437.970398,182.217087 
z"/>
<path fill="#2E2523" opacity="1.000000" stroke="none" 
	d="
M432.599915,171.822296 
	C433.007294,175.037399 432.995911,178.175430 432.980469,181.713776 
	C427.822693,183.376465 423.445587,182.273514 420.173340,177.341293 
	C421.480316,175.139465 422.755951,173.496979 424.031555,171.854492 
	C424.522644,171.844147 425.013763,171.833801 425.868225,171.774780 
	C428.214783,171.732483 430.197968,171.738831 432.599915,171.822296 
z"/>
<path fill="#332727" opacity="1.000000" stroke="none" 
	d="
M369.491394,157.141647 
	C370.495789,166.987335 370.495789,166.987335 359.492218,166.547211 
	C359.051147,166.270248 359.022888,165.831863 359.016449,165.401093 
	C359.004486,162.356491 358.998932,159.742630 359.442688,157.112320 
	C363.091766,157.111115 366.291595,157.126389 369.491394,157.141647 
z"/>
<path fill="#2E2523" opacity="1.000000" stroke="none" 
	d="
M435.522217,141.830353 
	C436.172699,146.285767 436.894165,150.955612 430.335083,151.978821 
	C428.654785,152.268585 427.224091,152.367203 425.392700,152.077240 
	C424.935364,151.447769 424.878784,151.206894 424.869720,150.526398 
	C424.887238,147.473419 424.857208,144.860077 424.827209,142.246735 
	C428.239777,142.083298 431.652374,141.919861 435.522217,141.830353 
z"/>
<path fill="#716B67" opacity="1.000000" stroke="none" 
	d="
M350.177277,147.936188 
	C350.377594,149.239243 350.577911,150.542313 350.819183,152.175156 
	C350.804047,153.225433 350.747925,153.945938 350.691345,155.383545 
	C350.634125,156.333069 350.628876,156.566650 350.538025,156.990173 
	C350.239105,157.445404 350.078400,157.712524 349.463776,157.976715 
	C345.631958,157.987640 342.255157,158.002182 338.878387,158.016724 
	C338.364288,155.070618 337.852203,152.125061 341.791351,150.098526 
	C345.079529,149.301071 347.628387,148.618637 350.177277,147.936188 
z"/>
<path fill="#8D8E85" opacity="1.000000" stroke="none" 
	d="
M450.291077,145.139648 
	C450.789642,143.984238 451.333130,141.805511 451.780090,141.825119 
	C460.036865,142.187653 468.282135,142.812683 476.425385,143.810242 
	C467.644318,144.538666 458.967712,144.839157 450.291077,145.139648 
z"/>
<path fill="#7F7A76" opacity="1.000000" stroke="none" 
	d="
M281.543335,169.092773 
	C280.245605,171.234100 279.224152,173.623383 277.580841,175.454514 
	C275.486755,177.787933 272.889679,179.669937 270.184021,181.382812 
	C269.822906,177.849945 269.787201,174.680817 269.791138,171.210571 
	C269.935638,170.315491 270.040466,169.721512 270.591675,169.115204 
	C274.539825,169.099503 278.041595,169.096146 281.543335,169.092773 
z"/>
<path fill="#2E2523" opacity="1.000000" stroke="none" 
	d="
M435.564636,156.204285 
	C435.967346,156.757812 436.006500,157.250870 436.023010,157.744690 
	C436.287201,165.629623 436.000671,165.937637 428.324799,166.007492 
	C427.501190,166.014984 426.677399,165.998764 425.382477,165.578705 
	C424.831635,164.079285 424.751984,162.994736 424.733124,161.517365 
	C424.761719,160.067780 424.729553,159.011002 424.816589,157.736359 
	C424.935760,157.518478 425.169434,157.080170 425.572510,157.061127 
	C428.292450,156.772293 430.609283,156.502502 432.926117,156.232727 
	C433.680939,156.203201 434.435760,156.173691 435.564636,156.204285 
z"/>
<path fill="#3C4834" opacity="1.000000" stroke="none" 
	d="
M359.022888,165.831863 
	C359.022888,165.831863 359.051147,166.270248 359.042633,166.489746 
	C357.241974,166.891510 355.257385,166.664810 353.719910,167.388306 
	C352.536469,167.945221 351.915314,169.697021 351.174927,171.316010 
	C347.925537,171.681396 344.219269,169.524124 341.246704,173.535492 
	C340.276031,171.440338 339.472198,169.042755 339.212585,166.312149 
	C343.172638,165.666229 346.588501,165.353333 350.376160,165.189606 
	C353.506256,165.503128 356.264587,165.667496 359.022888,165.831863 
z"/>
<path fill="#332727" opacity="1.000000" stroke="none" 
	d="
M252.337067,142.205627 
	C254.896469,142.082230 257.455872,141.958832 260.445526,142.342606 
	C260.566528,146.066284 260.257263,149.282791 259.511139,152.471222 
	C257.019531,152.473282 254.964783,152.503418 252.825592,152.399597 
	C252.602203,152.095047 252.425400,151.985397 252.235260,151.514801 
	C252.285492,148.130447 252.311279,145.168045 252.337067,142.205627 
z"/>
<path fill="#8D8E85" opacity="1.000000" stroke="none" 
	d="
M204.868668,148.061569 
	C204.358582,144.779999 203.298874,141.458466 208.805740,141.425095 
	C216.301666,141.379715 216.568558,141.367157 215.831512,147.546173 
	C211.842377,147.990509 208.355530,148.026047 204.868668,148.061569 
z"/>
<path fill="#3C4834" opacity="1.000000" stroke="none" 
	d="
M398.518066,177.011780 
	C399.601227,181.174530 398.029602,182.894516 393.721222,182.650711 
	C390.070129,182.444122 385.859955,183.391876 386.747711,177.345810 
	C386.916321,176.197556 386.908691,175.023422 387.279419,173.513580 
	C387.576477,173.165939 387.970245,173.188599 388.018066,173.552734 
	C389.299500,174.930969 390.401489,176.498169 391.797455,176.830566 
	C393.931091,177.338608 396.267639,176.994263 398.518066,177.011780 
z"/>
<path fill="#3D3630" opacity="1.000000" stroke="none" 
	d="
M332.645782,175.084991 
	C333.257111,181.704208 328.727722,185.037704 322.709290,181.916641 
	C321.442291,181.259613 321.521362,178.006851 321.492157,175.501099 
	C325.551331,175.063019 329.098572,175.074005 332.645782,175.084991 
z"/>
<path fill="#4B4241" opacity="1.000000" stroke="none" 
	d="
M241.442352,171.999268 
	C241.222183,169.934708 241.002014,167.870178 241.314453,165.407196 
	C245.394699,165.013382 248.942307,165.018021 252.503403,165.454254 
	C252.524231,167.622437 252.531570,169.359070 252.293655,171.215332 
	C251.359344,171.567902 250.670288,171.800827 249.518127,171.993713 
	C246.517471,171.968872 243.979904,171.984070 241.442352,171.999268 
z"/>
<path fill="#574E4B" opacity="1.000000" stroke="none" 
	d="
M82.729279,161.990509 
	C83.357460,163.794418 83.985634,165.598343 84.344421,167.869415 
	C80.435486,168.560455 76.795929,168.784332 73.156380,169.008209 
	C72.854195,166.945389 72.552017,164.882568 72.729233,162.424438 
	C76.382179,162.016266 79.555733,162.003387 82.729279,161.990509 
z"/>
<path fill="#8D8E85" opacity="1.000000" stroke="none" 
	d="
M269.113953,141.932205 
	C273.008667,145.142838 276.903351,148.353470 280.480957,151.889465 
	C276.816498,152.227325 273.469116,152.239838 269.940613,151.866364 
	C269.544312,148.297653 269.329132,145.114929 269.113953,141.932205 
z"/>
<path fill="#464239" opacity="1.000000" stroke="none" 
	d="
M175.792343,171.602112 
	C172.320724,170.648071 169.062393,169.417160 165.450043,168.101868 
	C165.763275,166.083542 166.430511,164.149582 167.646561,162.131973 
	C171.419052,163.350906 174.642715,164.653458 177.866394,165.956024 
	C177.246124,167.745758 176.625870,169.535492 175.792343,171.602112 
z"/>
<path fill="#8D8E85" opacity="1.000000" stroke="none" 
	d="
M321.719330,148.961945 
	C321.602051,146.928772 321.484772,144.895584 321.405701,142.426498 
	C323.240448,141.875931 325.036682,141.669205 326.833618,141.663361 
	C332.974945,141.643372 333.057220,141.757217 332.380707,148.514679 
	C328.476227,148.960800 325.097778,148.961365 321.719330,148.961945 
z"/>
<path fill="#8D8E85" opacity="1.000000" stroke="none" 
	d="
M293.512878,150.261597 
	C291.900116,147.735748 290.287354,145.209915 288.500366,142.349762 
	C292.610229,142.138458 297.277832,139.695480 300.935455,144.633636 
	C298.450562,146.997101 295.981720,148.629349 293.512878,150.261597 
z"/>
<path fill="#77726E" opacity="1.000000" stroke="none" 
	d="
M76.239159,149.943573 
	C80.444817,150.576767 84.402252,151.402451 88.640762,152.454468 
	C87.703583,153.607254 86.485329,154.533707 84.592911,155.715073 
	C80.372841,156.007858 76.826942,156.045761 73.281036,156.083649 
	C74.184334,154.101120 75.087639,152.118607 76.239159,149.943573 
z"/>
<path fill="#66675C" opacity="1.000000" stroke="none" 
	d="
M73.092529,156.410858 
	C76.826942,156.045761 80.372841,156.007858 84.362350,155.949310 
	C84.215439,157.738220 83.624916,159.547806 82.881836,161.673950 
	C79.555733,162.003387 76.382179,162.016266 72.781082,162.032471 
	C72.537025,160.269897 72.720520,158.503967 73.092529,156.410858 
z"/>
<path fill="#615D56" opacity="1.000000" stroke="none" 
	d="
M311.786377,162.728424 
	C309.414856,164.557877 306.915924,166.111267 304.122375,167.843842 
	C302.678192,166.375565 301.528687,164.728119 300.093506,162.659561 
	C299.691406,161.977921 299.659393,161.702499 300.126282,161.208862 
	C303.108032,159.527710 305.675323,158.049896 308.242615,156.572083 
	C308.723877,157.067078 309.205109,157.562073 309.896118,158.333344 
	C310.623566,159.890518 311.141266,161.171432 311.786377,162.728424 
z"/>
<path fill="#615D56" opacity="1.000000" stroke="none" 
	d="
M319.485535,164.141418 
	C319.602997,163.336105 320.076324,162.712677 321.210327,161.987488 
	C325.491486,161.322525 329.112000,160.759293 332.732513,160.196075 
	C332.817169,163.818970 332.901794,167.441879 332.727600,171.226929 
	C332.283722,170.938202 332.098755,170.487335 331.889709,169.652130 
	C330.670380,168.208160 329.618896,166.559906 328.246582,166.224579 
	C326.102020,165.700531 323.740234,166.065536 321.470459,166.053879 
	C320.927429,165.477020 320.384430,164.900146 319.485535,164.141418 
z"/>
<path fill="#7F7A76" opacity="1.000000" stroke="none" 
	d="
M395.201141,149.670776 
	C396.053986,150.216354 396.906830,150.761948 398.019775,151.469498 
	C398.279877,151.631470 398.495514,151.638977 398.554321,151.734558 
	C398.728607,152.078705 398.837708,152.330032 398.940399,152.584152 
	C398.845032,154.081543 398.749664,155.578934 398.153107,157.524872 
	C388.334808,158.009155 388.334808,158.009155 388.418854,151.995880 
	C390.958038,151.219360 393.079590,150.445068 395.201141,149.670776 
z"/>
<path fill="#716B67" opacity="1.000000" stroke="none" 
	d="
M249.981232,172.033752 
	C250.670288,171.800827 251.359344,171.567902 252.623383,171.328247 
	C254.100098,171.521255 255.001846,171.720993 255.906815,172.371246 
	C255.901138,175.945480 255.892227,179.069183 255.883316,182.192902 
	C253.350418,180.986160 250.817520,179.779419 248.405060,178.086594 
	C249.010712,175.744919 249.495972,173.889343 249.981232,172.033752 
z"/>
<path fill="#7F7A76" opacity="1.000000" stroke="none" 
	d="
M186.064484,141.902252 
	C185.587891,144.187622 184.619949,146.386292 183.016479,148.768753 
	C179.475189,147.807770 176.569458,146.663025 173.663727,145.518280 
	C173.801590,142.593643 175.509872,141.591843 178.224762,141.695862 
	C180.672150,141.789642 183.123535,141.779739 186.064484,141.902252 
z"/>
<path fill="#716B67" opacity="1.000000" stroke="none" 
	d="
M252.210800,151.936722 
	C252.425400,151.985397 252.602203,152.095047 252.748505,152.841415 
	C252.665573,154.609131 252.575348,155.801071 252.061096,156.994965 
	C248.056412,156.989883 244.475769,156.982849 240.895126,156.975815 
	C241.316483,154.995422 241.737839,153.015030 242.831497,151.075226 
	C246.406128,151.389450 249.308456,151.663086 252.210800,151.936722 
z"/>
<path fill="#7F7A76" opacity="1.000000" stroke="none" 
	d="
M293.613770,150.589203 
	C295.981720,148.629349 298.450562,146.997101 301.045654,145.005341 
	C302.515076,146.772858 303.858276,148.899872 304.991516,151.567352 
	C302.197510,153.400711 299.613434,154.693573 297.029388,155.986450 
	C295.924469,154.296570 294.819580,152.606689 293.613770,150.589203 
z"/>
<path fill="#716B67" opacity="1.000000" stroke="none" 
	d="
M388.001221,151.998077 
	C388.334808,158.009155 388.334808,158.009155 398.070557,157.966827 
	C398.545532,159.032990 398.601868,160.105759 398.170776,161.581665 
	C394.170654,162.289902 390.657928,162.594971 387.145203,162.900055 
	C386.944336,159.736710 386.743439,156.573380 386.463135,152.941986 
	C386.479797,152.301346 386.613159,152.165283 387.158325,152.019836 
	C387.532837,151.973923 388.001221,151.998077 388.001221,151.998077 
z"/>
<path fill="#66675C" opacity="1.000000" stroke="none" 
	d="
M182.440781,152.287552 
	C181.942123,154.105942 181.443466,155.924347 180.347778,157.971283 
	C176.739975,156.608810 173.729202,155.017807 170.718414,153.426819 
	C170.978271,152.417007 171.238144,151.407196 172.101135,150.190857 
	C175.949768,150.752090 179.195267,151.519821 182.440781,152.287552 
z"/>
<path fill="#716B67" opacity="1.000000" stroke="none" 
	d="
M297.098633,156.308685 
	C299.613434,154.693573 302.197510,153.400711 305.097900,151.898987 
	C306.303802,153.114182 307.193390,154.538208 308.162811,156.267151 
	C305.675323,158.049896 303.108032,159.527710 300.160095,161.087906 
	C298.908905,159.657181 298.038391,158.144043 297.098633,156.308685 
z"/>
<path fill="#7F7A76" opacity="1.000000" stroke="none" 
	d="
M252.235260,151.514801 
	C249.308456,151.663086 246.406128,151.389450 243.134460,150.901123 
	C245.738708,147.950653 248.712296,145.214859 252.011475,142.342346 
	C252.311279,145.168045 252.285492,148.130447 252.235260,151.514801 
z"/>
<path fill="#332F28" opacity="1.000000" stroke="none" 
	d="
M269.751495,171.511658 
	C269.787201,174.680817 269.822906,177.849945 269.859589,181.485596 
	C268.183563,182.072952 266.506592,182.193787 264.464813,181.818848 
	C264.082520,178.203735 264.065002,175.084427 264.450470,171.888718 
	C266.486145,171.712097 268.118805,171.611877 269.751495,171.511658 
z"/>
<path fill="#716B67" opacity="1.000000" stroke="none" 
	d="
M482.287689,148.578552 
	C473.754730,148.923233 465.104218,149.028885 456.454712,148.973892 
	C454.672974,148.962570 452.895081,148.351898 450.694458,147.789154 
	C450.273468,147.560867 450.203735,147.200272 450.787415,147.063263 
	C453.524231,146.953049 455.681030,147.073563 457.829834,146.989594 
	C465.235138,146.700226 472.637604,146.339432 480.041168,146.005859 
	C480.750946,146.764771 481.460724,147.523697 482.287689,148.578552 
z"/>
<path fill="#574E4B" opacity="1.000000" stroke="none" 
	d="
M387.970245,173.188599 
	C387.970245,173.188599 387.576477,173.165939 387.380005,173.149353 
	C387.136078,171.387512 387.088593,169.642273 387.549255,167.463409 
	C391.538361,167.051407 395.019318,167.073013 398.500275,167.094620 
	C398.539337,168.474884 398.578400,169.855164 398.110535,171.635315 
	C394.392456,172.419678 391.181366,172.804138 387.970245,173.188599 
z"/>
<path fill="#857F7C" opacity="1.000000" stroke="none" 
	d="
M204.805664,148.469406 
	C208.355530,148.026047 211.842377,147.990509 215.727478,147.936646 
	C216.188782,149.531372 216.251846,151.144424 215.887878,153.061844 
	C211.938660,153.243027 208.416428,153.119843 204.894211,152.996658 
	C204.843689,151.623520 204.793167,150.250381 204.805664,148.469406 
z"/>
<path fill="#574E4B" opacity="1.000000" stroke="none" 
	d="
M281.501953,157.000961 
	C281.555298,158.376343 281.608612,159.751709 281.160950,161.544617 
	C277.163727,161.972549 273.667480,161.982941 270.100952,161.580872 
	C270.080200,159.783936 270.129761,158.399460 270.622681,157.015808 
	C274.544678,157.011414 278.023346,157.006195 281.501953,157.000961 
z"/>
<path fill="#7F7A76" opacity="1.000000" stroke="none" 
	d="
M479.863892,145.745209 
	C472.637604,146.339432 465.235138,146.700226 457.829834,146.989594 
	C455.681030,147.073563 453.524231,146.953049 450.836365,146.886261 
	C450.262268,146.466614 450.222900,146.086945 450.237305,145.423462 
	C458.967712,144.839157 467.644318,144.538666 476.691284,144.042877 
	C477.936646,144.393234 478.811615,144.938904 479.863892,145.745209 
z"/>
<path fill="#857F7C" opacity="1.000000" stroke="none" 
	d="
M321.602356,149.295609 
	C325.097778,148.961365 328.476227,148.960800 332.298096,148.945709 
	C332.788940,150.320419 332.836365,151.709625 332.374756,153.524597 
	C328.474670,153.923141 325.083527,153.895905 321.692413,153.868683 
	C321.623413,152.455551 321.554413,151.042404 321.602356,149.295609 
z"/>
<path fill="#66675C" opacity="1.000000" stroke="none" 
	d="
M398.589996,166.672928 
	C395.019318,167.073013 391.538361,167.051407 387.615295,167.033218 
	C387.114716,165.931870 387.056244,164.827118 387.071472,163.311188 
	C390.657928,162.594971 394.170654,162.289902 398.099548,161.979507 
	C398.570343,163.399872 398.625031,164.825546 398.589996,166.672928 
z"/>
<path fill="#4B4241" opacity="1.000000" stroke="none" 
	d="
M331.913757,170.036453 
	C332.098755,170.487335 332.283722,170.938202 332.607147,171.587372 
	C332.773407,172.614838 332.801270,173.444046 332.737427,174.679108 
	C329.098572,175.074005 325.551331,175.063019 321.554749,175.060791 
	C321.141388,173.668991 321.177368,172.268448 321.790161,170.464798 
	C325.549225,170.053284 328.731476,170.044876 331.913757,170.036453 
z"/>
<path fill="#4B4241" opacity="1.000000" stroke="none" 
	d="
M281.577423,156.653046 
	C278.023346,157.006195 274.544678,157.011414 270.544403,156.612259 
	C269.996857,155.111618 269.970947,154.015366 270.005920,152.756836 
	C270.066803,152.594589 270.121735,152.252335 270.121735,152.252350 
	C273.469116,152.239838 276.816498,152.227325 280.630798,152.196075 
	C281.282776,153.553268 281.467804,154.929184 281.577423,156.653046 
z"/>
<path fill="#4B4241" opacity="1.000000" stroke="none" 
	d="
M388.018066,173.552734 
	C391.181366,172.804138 394.392456,172.419678 398.012878,172.039642 
	C398.502167,173.425034 398.582123,174.806000 398.590088,176.599365 
	C396.267639,176.994263 393.931091,177.338608 391.797455,176.830566 
	C390.401489,176.498169 389.299500,174.930969 388.018066,173.552734 
z"/>
<path fill="#615D56" opacity="1.000000" stroke="none" 
	d="
M240.806946,157.309814 
	C244.475769,156.982849 248.056412,156.989883 252.088226,157.397430 
	C252.522720,158.872620 252.506027,159.947250 252.059631,161.022415 
	C248.057266,161.028870 244.484604,161.034805 240.911926,161.040741 
	C240.847534,159.908432 240.783157,158.776123 240.806946,157.309814 
z"/>
<path fill="#464239" opacity="1.000000" stroke="none" 
	d="
M73.185310,169.322845 
	C76.795929,168.784332 80.435486,168.560455 84.448380,168.206635 
	C86.244286,169.161728 87.666855,170.246780 89.325722,171.577942 
	C85.221840,172.181580 80.881645,172.539108 76.114700,173.000031 
	C74.863373,171.948120 74.038803,170.792801 73.185310,169.322845 
z"/>
<path fill="#857F7C" opacity="1.000000" stroke="none" 
	d="
M424.536438,142.354706 
	C424.857208,144.860077 424.887238,147.473419 424.459961,150.531235 
	C421.676880,150.318054 419.351105,149.660416 417.025360,149.002792 
	C419.432159,146.822769 421.838928,144.642731 424.536438,142.354706 
z"/>
<path fill="#77726E" opacity="1.000000" stroke="none" 
	d="
M416.716827,149.135773 
	C419.351105,149.660416 421.676880,150.318054 424.412415,150.970856 
	C424.878784,151.206894 424.935364,151.447769 425.036011,152.057327 
	C425.080292,153.049713 425.080536,153.673416 424.578247,154.627747 
	C420.573669,154.952866 417.071533,154.947372 413.569427,154.941879 
	C414.515717,153.050842 415.462006,151.159805 416.716827,149.135773 
z"/>
<path fill="#574E4B" opacity="1.000000" stroke="none" 
	d="
M259.947968,152.499298 
	C260.257263,149.282791 260.566528,146.066284 260.872070,142.413193 
	C262.052368,141.907471 263.236359,141.838333 264.701050,142.301315 
	C264.979828,146.053467 264.977936,149.273483 264.557129,152.491302 
	C262.741486,152.492493 261.344727,152.495895 259.947968,152.499298 
z"/>
<path fill="#574E4B" opacity="1.000000" stroke="none" 
	d="
M424.672333,161.910187 
	C424.751984,162.994736 424.831635,164.079285 424.921448,165.571320 
	C424.931610,165.978806 424.943634,165.941299 424.473328,165.948883 
	C420.363098,165.962036 416.723145,165.967606 413.083191,165.973175 
	C413.071106,164.905319 413.059021,163.837479 413.594604,162.383667 
	C417.652283,161.968506 421.162323,161.939346 424.672333,161.910187 
z"/>
<path fill="#66675C" opacity="1.000000" stroke="none" 
	d="
M281.619812,168.684326 
	C278.041595,169.096146 274.539825,169.099503 270.523193,168.701935 
	C270.050507,167.202026 270.092743,166.103058 270.582031,165.004257 
	C274.533173,164.998566 278.037231,164.992722 281.541260,164.986862 
	C281.592957,166.083206 281.644623,167.179550 281.619812,168.684326 
z"/>
<path fill="#615D56" opacity="1.000000" stroke="none" 
	d="
M170.488770,153.704025 
	C173.729202,155.017807 176.739975,156.608810 180.184265,158.281464 
	C180.617752,158.363098 180.628860,158.412811 180.616394,158.421967 
	C180.276703,159.417267 179.949478,160.403412 179.037720,161.658875 
	C175.161942,160.871109 171.870697,159.813995 168.579468,158.756897 
	C169.139343,157.165009 169.699234,155.573120 170.488770,153.704025 
z"/>
<path fill="#77726E" opacity="1.000000" stroke="none" 
	d="
M321.583923,154.265045 
	C325.083527,153.895905 328.474670,153.923141 332.299194,153.934616 
	C332.785156,155.003693 332.837677,156.088501 332.378540,157.578674 
	C328.462097,157.961029 325.057312,157.938049 321.652527,157.915070 
	C321.593506,156.830505 321.534454,155.745956 321.583923,154.265045 
z"/>
<path fill="#574E4B" opacity="1.000000" stroke="none" 
	d="
M240.846329,161.434509 
	C244.484604,161.034805 248.057266,161.028870 252.075485,161.422180 
	C252.510651,162.888519 252.500290,163.955597 252.489929,165.022675 
	C248.942307,165.018021 245.394699,165.013382 241.389694,165.009369 
	C240.881790,163.949417 240.831253,162.888855 240.846329,161.434509 
z"/>
<path fill="#615D56" opacity="1.000000" stroke="none" 
	d="
M216.160797,160.064987 
	C216.216995,161.116119 216.273209,162.167267 215.830811,163.605713 
	C211.848709,163.986313 208.365189,163.979599 204.881683,163.972885 
	C204.835114,162.915146 204.788559,161.857391 205.267975,160.403229 
	C209.249588,160.026199 212.705185,160.045593 216.160797,160.064987 
z"/>
<path fill="#615D56" opacity="1.000000" stroke="none" 
	d="
M424.733124,161.517365 
	C421.162323,161.939346 417.652283,161.968506 413.702942,161.996552 
	C413.306396,160.936798 413.349213,159.878159 413.896851,158.424377 
	C417.833557,158.004211 421.265472,157.979218 424.697388,157.954224 
	C424.729553,159.011002 424.761719,160.067780 424.733124,161.517365 
z"/>
<path fill="#77726E" opacity="1.000000" stroke="none" 
	d="
M204.827408,153.396255 
	C208.416428,153.119843 211.938660,153.243027 215.787827,153.451416 
	C216.179703,154.383301 216.244629,155.229980 215.834732,156.514496 
	C211.861816,156.976456 208.363708,157.000610 204.865616,157.024750 
	C204.830612,155.948456 204.795609,154.872162 204.827408,153.396255 
z"/>
<path fill="#716B67" opacity="1.000000" stroke="none" 
	d="
M321.536438,158.296997 
	C325.057312,157.938049 328.462097,157.961029 332.301758,157.979202 
	C332.774078,158.468887 332.811462,158.963379 332.790680,159.826981 
	C329.112000,160.759293 325.491486,161.322525 321.423462,161.845825 
	C321.124054,160.763565 321.272186,159.721252 321.536438,158.296997 
z"/>
<path fill="#615D56" opacity="1.000000" stroke="none" 
	d="
M256.296509,182.294632 
	C255.892227,179.069183 255.901138,175.945480 256.309479,172.309723 
	C257.777649,171.840393 258.846344,171.883087 259.917725,172.364349 
	C260.241333,175.936554 260.562256,179.070206 260.883179,182.203827 
	C259.492035,182.268005 258.100861,182.332184 256.296509,182.294632 
z"/>
<path fill="#464239" opacity="1.000000" stroke="none" 
	d="
M216.117584,167.969452 
	C216.230820,168.860367 216.344040,169.751282 216.452820,170.977966 
	C216.448380,171.313736 216.258255,171.697083 215.699615,171.856934 
	C212.386047,172.741638 209.631104,173.466492 206.876160,174.191345 
	C206.160980,172.381973 205.445786,170.572601 205.272156,168.373215 
	C209.248322,167.978607 212.682953,167.974030 216.117584,167.969452 
z"/>
<path fill="#2E2523" opacity="1.000000" stroke="none" 
	d="
M97.688766,157.995331 
	C103.100037,161.146729 103.193291,162.452560 98.324585,165.855194 
	C94.870514,164.304672 94.602303,161.319473 97.688766,157.995331 
z"/>
<path fill="#464239" opacity="1.000000" stroke="none" 
	d="
M413.025208,166.371277 
	C416.723145,165.967606 420.363098,165.962036 424.454193,165.955688 
	C424.651154,167.084305 424.396942,168.213745 423.615234,169.668457 
	C420.667969,170.002869 418.248169,170.012009 415.481079,170.016357 
	C414.433533,169.999222 413.733246,169.986877 413.032990,169.974518 
	C413.011047,168.906143 412.989105,167.837753 413.025208,166.371277 
z"/>
<path fill="#615D56" opacity="1.000000" stroke="none" 
	d="
M471.128357,170.858398 
	C471.927307,170.913376 472.726257,170.968353 473.807556,171.048767 
	C474.520874,172.159332 474.951843,173.244446 475.196716,174.712341 
	C471.240356,175.889679 468.620270,177.894882 467.875488,181.873932 
	C466.893860,180.879593 465.912201,179.885254 465.055359,178.320526 
	C467.162872,175.452866 469.145630,173.155640 471.128357,170.858398 
z"/>
<path fill="#66675C" opacity="1.000000" stroke="none" 
	d="
M114.443527,166.534821 
	C106.109818,166.591599 105.575317,166.226776 105.295197,160.092438 
	C108.368286,161.875702 111.406242,164.081390 114.443527,166.534821 
z"/>
<path fill="#716B67" opacity="1.000000" stroke="none" 
	d="
M264.976044,152.493500 
	C264.977936,149.273483 264.979828,146.053467 264.987549,142.381165 
	C266.092010,141.887680 267.190674,141.846481 268.701630,141.868744 
	C269.329132,145.114929 269.544312,148.297653 269.940613,151.866364 
	C270.121735,152.252335 270.066803,152.594589 269.596252,152.690445 
	C267.742493,152.688705 266.359253,152.591095 264.976044,152.493500 
z"/>
<path fill="#574E4B" opacity="1.000000" stroke="none" 
	d="
M216.204453,167.645584 
	C212.682953,167.974030 209.248322,167.978607 205.344849,167.983734 
	C204.833832,166.912964 204.791641,165.841629 204.815567,164.371597 
	C208.365189,163.979599 211.848709,163.986313 215.731232,163.990814 
	C216.183945,165.099655 216.237640,166.210678 216.204453,167.645584 
z"/>
<path fill="#574E4B" opacity="1.000000" stroke="none" 
	d="
M331.889709,169.652130 
	C328.731476,170.044876 325.549225,170.053284 321.947632,170.073151 
	C321.454376,169.006348 321.380402,167.928116 321.388458,166.451874 
	C323.740234,166.065536 326.102020,165.700531 328.246582,166.224579 
	C329.618896,166.559906 330.670380,168.208160 331.889709,169.652130 
z"/>
<path fill="#37332B" opacity="1.000000" stroke="none" 
	d="
M415.828369,170.021164 
	C418.248169,170.012009 420.667969,170.002869 423.538666,170.007065 
	C423.998993,170.428940 424.008392,170.837494 424.024658,171.550262 
	C422.755951,173.496979 421.480316,175.139465 419.989014,177.065094 
	C418.636047,176.387848 417.498779,175.427460 416.169067,173.813599 
	C415.927185,172.113800 415.877777,171.067490 415.828369,170.021164 
z"/>
<path fill="#615D56" opacity="1.000000" stroke="none" 
	d="
M338.813721,158.409012 
	C342.255157,158.002182 345.631958,157.987640 349.525574,158.372787 
	C349.997925,159.837219 349.953491,160.901947 349.454956,161.965912 
	C345.628723,161.964157 342.256622,161.963181 338.884521,161.962204 
	C338.839355,160.908569 338.794189,159.854935 338.813721,158.409012 
z"/>
<path fill="#8D8E85" opacity="1.000000" stroke="none" 
	d="
M463.498413,161.922379 
	C464.690125,162.994461 465.608154,164.275894 466.630371,166.117966 
	C464.400665,168.459473 462.066772,170.240341 459.732910,172.021194 
	C460.896851,168.724701 462.060791,165.428207 463.498413,161.922379 
z"/>
<path fill="#574E4B" opacity="1.000000" stroke="none" 
	d="
M338.817139,162.359329 
	C342.256622,161.963181 345.628723,161.964157 349.496582,162.348480 
	C349.996277,163.501373 350.000305,164.270889 350.004333,165.040421 
	C346.588501,165.353333 343.172638,165.666229 339.300903,165.972351 
	C338.813232,164.895859 338.781494,163.826157 338.817139,162.359329 
z"/>
<path fill="#4B4241" opacity="1.000000" stroke="none" 
	d="
M261.289368,182.276917 
	C260.562256,179.070206 260.241333,175.936554 260.330536,172.306061 
	C261.842957,171.861176 262.945221,171.913147 264.047485,171.965118 
	C264.065002,175.084427 264.082520,178.203735 264.114227,181.721283 
	C263.317474,182.196335 262.506531,182.273163 261.289368,182.276917 
z"/>
<path fill="#4B4241" opacity="1.000000" stroke="none" 
	d="
M468.282593,182.017624 
	C468.620270,177.894882 471.240356,175.889679 475.348572,175.034882 
	C476.454254,175.731049 477.222015,176.487442 477.751770,177.612305 
	C475.984772,179.351212 474.455841,180.721619 472.926910,182.092041 
	C471.514496,182.115128 470.102081,182.138229 468.282593,182.017624 
z"/>
<path fill="#574E4B" opacity="1.000000" stroke="none" 
	d="
M168.391479,159.014053 
	C171.870697,159.813995 175.161942,160.871109 178.845764,161.984039 
	C178.905807,163.150894 178.573273,164.261932 178.053558,165.664490 
	C174.642715,164.653458 171.419052,163.350906 167.842758,161.865692 
	C167.727921,160.879105 167.965698,160.075165 168.391479,159.014053 
z"/>
<path fill="#77726E" opacity="1.000000" stroke="none" 
	d="
M182.600464,151.994156 
	C179.195267,151.519821 175.949768,150.752090 172.299988,149.943604 
	C172.338120,148.614395 172.780518,147.325928 173.443314,145.777878 
	C176.569458,146.663025 179.475189,147.807770 182.768570,149.013580 
	C183.024200,149.949997 182.892181,150.825378 182.600464,151.994156 
z"/>
<path fill="#3C4834" opacity="1.000000" stroke="none" 
	d="
M438.395996,182.332611 
	C443.362549,181.327759 446.240417,178.567978 444.994568,172.298767 
	C445.476135,174.808243 446.794006,177.988312 446.094727,180.635544 
	C445.787415,181.798950 441.371857,181.877167 438.395996,182.332611 
z"/>
<path fill="#857F7C" opacity="1.000000" stroke="none" 
	d="
M249.518127,171.993713 
	C249.495972,173.889343 249.010712,175.744919 248.229080,177.801270 
	C245.883499,176.210541 243.834290,174.419083 241.613724,172.313446 
	C243.979904,171.984070 246.517471,171.968872 249.518127,171.993713 
z"/>
<path fill="#857F7C" opacity="1.000000" stroke="none" 
	d="
M350.231293,147.499969 
	C347.628387,148.618637 345.079529,149.301071 342.086731,149.960434 
	C344.241180,147.564377 346.839478,145.191422 349.792938,142.726944 
	C350.193848,144.111542 350.239563,145.587646 350.231293,147.499969 
z"/>
<path fill="#7F7A76" opacity="1.000000" stroke="none" 
	d="
M459.809265,172.346527 
	C462.066772,170.240341 464.400665,168.459473 466.850403,166.368256 
	C467.563782,166.514374 468.161255,166.970871 468.792572,168.000473 
	C466.856995,171.056656 464.887573,173.539719 462.918152,176.022766 
	C461.907318,174.905792 460.896484,173.788818 459.809265,172.346527 
z"/>
<path fill="#3C4834" opacity="1.000000" stroke="none" 
	d="
M350.675110,156.801407 
	C350.628876,156.566650 350.634125,156.333069 350.716522,155.925995 
	C356.880432,156.016174 363.018707,156.281021 369.324219,156.843750 
	C366.291595,157.126389 363.091766,157.111115 358.988495,157.083664 
	C355.615051,156.981461 353.145081,156.891434 350.675110,156.801407 
z"/>
<path fill="#615D56" opacity="1.000000" stroke="none" 
	d="
M281.608368,164.608490 
	C278.037231,164.992722 274.533173,164.998566 270.523499,164.629028 
	C270.069000,163.500183 270.120117,162.746750 270.171234,161.993317 
	C273.667480,161.982941 277.163727,161.972549 281.082794,161.952332 
	C281.562256,162.705048 281.618866,163.467575 281.608368,164.608490 
z"/>
<path fill="#66675C" opacity="1.000000" stroke="none" 
	d="
M424.816589,157.736359 
	C421.265472,157.979218 417.833557,158.004211 413.986816,158.036285 
	C413.514618,157.265762 413.457245,156.488174 413.484650,155.326233 
	C417.071533,154.947372 420.573669,154.952866 424.528168,154.936615 
	C424.980560,154.914871 425.199982,155.266663 425.204681,155.818207 
	C425.196045,156.606552 425.182739,156.843369 425.169434,157.080170 
	C425.169434,157.080170 424.935760,157.518478 424.816589,157.736359 
z"/>
<path fill="#66675C" opacity="1.000000" stroke="none" 
	d="
M204.806915,157.395691 
	C208.363708,157.000610 211.861816,156.976456 215.759125,156.932983 
	C216.220123,157.704865 216.281921,158.496094 216.252258,159.676147 
	C212.705185,160.045593 209.249588,160.026199 205.332230,160.009827 
	C204.829727,159.264099 204.788986,158.515381 204.806915,157.395691 
z"/>
<path fill="#716B67" opacity="1.000000" stroke="none" 
	d="
M463.034454,176.297958 
	C464.887573,173.539719 466.856995,171.056656 468.942200,168.247314 
	C469.679443,168.708450 470.300842,169.495850 471.025330,170.570831 
	C469.145630,173.155640 467.162872,175.452866 464.948914,178.030792 
	C464.195404,177.732040 463.673096,177.152588 463.034454,176.297958 
z"/>
<path fill="#3D3630" opacity="1.000000" stroke="none" 
	d="
M473.325897,182.179474 
	C474.455841,180.721619 475.984772,179.351212 477.880127,177.907623 
	C479.586945,178.736618 480.927429,179.638748 482.267883,180.540894 
	C481.942841,181.116226 481.617798,181.691574 481.292755,182.266922 
	C478.770111,182.266922 476.247498,182.266922 473.325897,182.179474 
z"/>
<path fill="#D4F7D7" opacity="1.000000" stroke="none" 
	d="
M155.894165,162.169220 
	C155.108093,158.550110 154.363983,154.923386 153.881866,150.992767 
	C155.431885,154.186600 156.719925,157.684341 157.583221,161.503845 
	C156.747101,161.909439 156.335678,161.993286 155.924271,162.077118 
	C155.924271,162.077118 155.936127,162.161606 155.894165,162.169220 
z"/>
<path fill="#3C4834" opacity="1.000000" stroke="none" 
	d="
M355.413879,152.385437 
	C360.174713,151.813141 365.388458,151.363174 371.032227,150.889023 
	C369.758789,151.453674 368.081635,152.431839 366.346222,152.549255 
	C362.869904,152.784500 359.361755,152.548950 355.413879,152.385437 
z"/>
<path fill="#3D3630" opacity="1.000000" stroke="none" 
	d="
M207.059174,174.430588 
	C209.631104,173.466492 212.386047,172.741638 215.581314,172.035217 
	C214.206970,173.480652 212.392319,174.907654 210.337738,176.564789 
	C209.145935,176.086563 208.194061,175.378189 207.059174,174.430588 
z"/>
<path fill="#D4F7D7" opacity="1.000000" stroke="none" 
	d="
M121.011139,151.433319 
	C123.945137,154.705963 123.219086,157.473465 118.211777,161.159576 
	C117.884453,160.416229 117.925117,159.606735 118.224365,158.173737 
	C118.586815,156.981750 118.690681,156.413284 118.794556,155.844833 
	C119.474777,154.467010 120.155006,153.089203 121.011139,151.433319 
z"/>
<path fill="#D4F7D7" opacity="1.000000" stroke="none" 
	d="
M145.377304,181.413269 
	C146.017776,176.889420 148.765671,174.483322 153.808228,174.831604 
	C151.291412,177.149002 148.517975,179.254532 145.377304,181.413269 
z"/>
<path fill="#D4F7D7" opacity="1.000000" stroke="none" 
	d="
M122.795593,175.509674 
	C127.439308,174.202820 129.302460,177.218643 130.930542,181.040344 
	C128.244186,179.560867 125.494186,177.710297 122.795593,175.509674 
z"/>
<path fill="#3C4834" opacity="1.000000" stroke="none" 
	d="
M425.572510,157.061127 
	C425.182739,156.843369 425.196045,156.606552 425.259644,156.018097 
	C427.631958,155.768066 429.953979,155.869720 432.601074,156.102051 
	C430.609283,156.502502 428.292450,156.772293 425.572510,157.061127 
z"/>
<path fill="#84E78C" opacity="1.000000" stroke="none" 
	d="
M155.762634,162.389206 
	C156.335678,161.993286 156.747101,161.909439 157.470200,161.894272 
	C157.744141,164.199051 157.706390,166.435165 157.408295,168.882874 
	C156.632278,166.963425 156.116623,164.832367 155.762634,162.389206 
z"/>
<path fill="#3C4834" opacity="1.000000" stroke="none" 
	d="
M415.481079,170.016357 
	C415.877777,171.067490 415.927185,172.113800 415.980377,173.552322 
	C414.975189,172.848175 413.966217,171.751846 412.995117,170.315018 
	C413.733246,169.986877 414.433533,169.999222 415.481079,170.016357 
z"/>
<path fill="#37332B" opacity="1.000000" stroke="none" 
	d="
M399.288696,152.558731 
	C398.837708,152.330032 398.728607,152.078705 398.588684,151.632294 
	C399.836151,151.536606 401.108032,151.638779 402.717590,151.916046 
	C401.915833,152.238525 400.776398,152.385925 399.288696,152.558731 
z"/>
<path fill="#84E78C" opacity="1.000000" stroke="none" 
	d="
M118.604309,155.949127 
	C118.690681,156.413284 118.586815,156.981750 118.289040,157.773132 
	C118.201447,157.348526 118.307755,156.700958 118.604309,155.949127 
z"/>
<path fill="#84E78C" opacity="1.000000" stroke="none" 
	d="
M127.061508,145.447235 
	C126.797997,145.956573 126.228920,146.479752 125.363205,147.036072 
	C125.629692,146.533173 126.192818,145.997116 127.061508,145.447235 
z"/>
<path fill="#37332B" opacity="1.000000" stroke="none" 
	d="
M409.137756,152.116180 
	C409.257874,151.787567 409.533997,151.526001 409.961670,151.149567 
	C409.840118,151.417542 409.566925,151.800385 409.137756,152.116180 
z"/>
<path fill="#84E78C" opacity="1.000000" stroke="none" 
	d="
M150.773132,146.827194 
	C150.206757,146.745865 149.529144,146.380249 148.718918,145.748901 
	C149.278183,145.836411 149.970047,146.189667 150.773132,146.827194 
z"/>
<path fill="#D4F7D7" opacity="1.000000" stroke="none" 
	d="
M122.130081,175.236008 
	C122.176224,175.021820 122.490616,174.952087 122.888885,175.029800 
	C122.781288,175.244980 122.589806,175.312729 122.130081,175.236008 
z"/>
<path fill="#77726E" opacity="1.000000" stroke="none" 
	d="
M91.563499,152.116211 
	C91.490089,152.077637 91.776550,152.036652 91.847504,152.021805 
	C91.918449,152.006958 91.636909,152.154800 91.563499,152.116211 
z"/>
<path fill="#F4FDF5" opacity="1.000000" stroke="none" 
	d="
M131.722229,168.517487 
	C128.616638,173.407806 121.846497,174.075363 119.749359,169.876755 
	C118.962143,168.300690 118.506798,165.553070 119.349663,164.390335 
	C120.833748,162.343033 123.295799,160.103195 125.599701,159.789398 
	C128.231094,159.431015 131.046921,161.182388 131.408020,164.707886 
	C131.525558,165.855392 131.689102,166.998215 131.722229,168.517487 
z"/>
<path fill="#F4FDF5" opacity="1.000000" stroke="none" 
	d="
M144.740112,176.532471 
	C142.861282,178.711502 141.503082,181.395187 139.417725,182.203949 
	C135.820068,183.599228 130.782318,179.733658 131.054489,175.633118 
	C131.183746,173.685577 133.640686,170.828598 135.587341,170.265747 
	C141.354156,168.598389 143.914352,170.564651 144.740112,176.532471 
z"/>
<path fill="#F4FDF5" opacity="1.000000" stroke="none" 
	d="
M142.498550,161.450729 
	C141.655548,163.747726 141.149323,166.263824 139.617203,167.417328 
	C138.674286,168.127243 135.137665,167.274567 134.594467,166.199478 
	C133.742508,164.513260 133.650909,161.403961 134.713516,160.104538 
	C135.631241,158.982269 138.608337,159.404739 140.669189,159.444870 
	C141.257370,159.456314 141.825165,160.515793 142.498550,161.450729 
z"/>
<path fill="#8D8E85" opacity="1.000000" stroke="none" 
	d="
M388.418854,151.995880 
	C388.001221,151.998077 387.532837,151.973923 387.298523,151.981125 
	C387.002502,149.609390 386.940765,147.230438 387.243958,144.370926 
	C388.075867,143.828857 388.542847,143.767365 389.009857,143.705872 
	C390.949097,145.518692 392.888367,147.331512 395.014404,149.407547 
	C393.079590,150.445068 390.958038,151.219360 388.418854,151.995880 
z"/>
<path fill="#3D3630" opacity="1.000000" stroke="none" 
	d="
M388.885742,143.507401 
	C388.542847,143.767365 388.075867,143.828857 387.256836,143.924042 
	C386.990723,143.528290 387.076569,143.098846 387.162476,142.669418 
	C387.695526,142.882584 388.228607,143.095749 388.885742,143.507401 
z"/>
<path fill="#2E2523" opacity="1.000000" stroke="none" 
	d="
M350.538025,156.990173 
	C353.145081,156.891434 355.615051,156.981461 358.539185,157.100128 
	C358.998932,159.742630 359.004486,162.356491 359.016449,165.401093 
	C356.264587,165.667496 353.506256,165.503128 350.376160,165.189606 
	C350.000305,164.270889 349.996277,163.501373 349.950653,162.349274 
	C349.953491,160.901947 349.997925,159.837219 349.980591,158.376404 
	C350.078400,157.712524 350.239105,157.445404 350.538025,156.990173 
z"/>
<path fill="#38D243" opacity="1.000000" stroke="none" 
	d="
M270.100952,161.580856 
	C270.120117,162.746750 270.069000,163.500183 270.076416,164.628845 
	C270.092743,166.103058 270.050507,167.202026 270.076782,168.714264 
	C270.040466,169.721512 269.935638,170.315491 269.791138,171.210571 
	C268.118805,171.611877 266.486145,171.712097 264.450500,171.888718 
	C262.945221,171.913147 261.842957,171.861176 260.327881,171.867508 
	C258.846344,171.883087 257.777649,171.840393 256.306274,171.859222 
	C255.001846,171.720993 254.100098,171.521255 252.868622,171.208588 
	C252.531570,169.359070 252.524231,167.622437 252.503403,165.454254 
	C252.500290,163.955597 252.510651,162.888519 252.505188,161.421661 
	C252.506027,159.947250 252.522720,158.872620 252.512268,157.395508 
	C252.575348,155.801071 252.665573,154.609131 252.832916,152.975372 
	C254.964783,152.503418 257.019531,152.473282 259.511139,152.471222 
	C261.344727,152.495895 262.741486,152.492493 264.557129,152.491302 
	C266.359253,152.591095 267.742493,152.688705 269.535370,152.852692 
	C269.970947,154.015366 269.996857,155.111618 270.101044,156.611450 
	C270.129761,158.399460 270.080200,159.783936 270.100952,161.580856 
z"/>
</svg>