<svg version="1.1" id="Layer_1" xmlns="http://www.w3.org/2000/svg" xmlns:xlink="http://www.w3.org/1999/xlink" x="0px" y="0px"
	 width="100%" viewBox="0 0 431 346" enable-background="new 0 0 431 346" xml:space="preserve">
<path fill="#FAF9F5" opacity="1.000000" stroke="none" 
	d="
M259.000000,347.000000 
	C172.666687,347.000000 86.833382,347.000000 1.000058,347.000000 
	C1.000038,231.666733 1.000038,116.333450 1.000019,1.000135 
	C144.666565,1.000090 288.333130,1.000090 431.999756,1.000045 
	C431.999847,116.333199 431.999847,231.666397 431.999939,346.999817 
	C374.500000,347.000000 317.000000,347.000000 259.000000,347.000000 
M116.296013,243.256638 
	C115.085144,241.104660 112.445305,240.153641 111.891197,242.486359 
	C110.515549,248.277557 110.309189,254.346497 109.633202,260.303894 
	C110.178421,260.490387 110.723648,260.676880 111.268867,260.863373 
	C114.946625,257.123535 114.456284,251.307327 117.352760,246.339783 
	C118.529793,245.901154 119.706833,245.462540 121.399445,244.831772 
	C120.735085,250.585373 120.181458,255.379944 119.457893,261.646240 
	C125.981270,256.774841 123.300575,247.530853 131.309708,244.859619 
	C130.663315,250.260818 130.076019,255.168259 129.488724,260.075714 
	C129.985580,260.294067 130.482422,260.512421 130.979263,260.730774 
	C131.786774,259.671021 133.136581,258.689819 133.303436,257.537323 
	C133.879211,253.560593 134.073441,249.526276 134.353607,245.509750 
	C134.623474,241.640671 132.733490,240.300156 129.283081,241.975754 
	C128.125198,242.538055 127.148804,243.474030 126.111420,244.223358 
	C122.361977,240.271042 121.952667,240.247910 116.296013,243.256638 
M264.568085,169.299484 
	C260.552551,169.868881 258.797729,168.777664 258.571533,164.082047 
	C258.180206,155.958282 252.173492,151.137024 243.824600,151.085266 
	C238.159134,151.050140 232.481354,150.848129 226.831345,151.144897 
	C222.176010,151.389404 222.938675,148.409866 222.780609,145.600571 
	C222.604782,142.475296 223.142944,140.492599 227.011978,140.758347 
	C231.095062,141.038803 235.212341,140.821228 239.791611,140.821228 
	C239.791611,126.799911 239.893570,113.504875 239.588394,100.219200 
	C239.565231,99.210541 236.670151,97.459023 235.080551,97.424881 
	C223.754440,97.181580 212.418610,97.416153 201.090439,97.226730 
	C197.349335,97.164177 196.163284,98.460236 196.223724,102.143478 
	C196.406891,113.305183 196.408142,124.473778 196.223541,135.635452 
	C196.161057,139.413849 197.120361,141.374908 201.259323,140.857040 
	C203.064056,140.631210 204.921158,140.848495 206.753494,140.813507 
	C210.268326,140.746414 213.473434,140.052078 213.466248,145.817581 
	C213.459457,151.261353 210.826096,151.233459 206.993210,151.115265 
	C201.832367,150.956116 196.662872,151.065842 191.497147,151.079086 
	C181.474884,151.104782 176.659134,155.446747 176.181183,165.361130 
	C176.032898,168.437531 174.977768,169.453659 172.014542,169.340317 
	C167.688385,169.174850 163.349136,169.380920 159.019135,169.276566 
	C156.030945,169.204529 154.901901,170.445892 154.928238,173.451019 
	C155.032013,185.281357 155.057068,197.114227 154.912140,208.943710 
	C154.873322,212.112549 156.119736,212.938095 159.048370,212.869019 
	C165.543610,212.715790 172.044968,212.822037 178.543823,212.822235 
	C184.815460,212.822433 191.087097,212.822281 197.889801,212.822281 
	C197.889801,200.823990 197.914352,189.533234 197.882416,178.242630 
	C197.854355,168.323135 198.867249,169.104492 189.168518,169.373703 
	C184.416595,169.505615 184.376907,166.970734 185.134949,163.679932 
	C185.870636,160.486221 188.196472,159.814224 191.209656,159.838699 
	C203.540024,159.938873 215.871674,159.877945 228.202850,159.878494 
	C233.535233,159.878723 238.867630,159.882019 244.200012,159.888016 
	C248.103287,159.892395 249.254242,162.151459 249.365814,165.705368 
	C249.490128,169.665161 246.920914,169.325195 244.373642,169.303375 
	C242.040894,169.283386 239.699951,169.422653 237.376801,169.272537 
	C234.095596,169.060501 233.016785,170.502090 233.051163,173.704987 
	C233.176331,185.368271 233.206375,197.035248 233.035263,208.697372 
	C232.985565,212.084961 234.251373,212.923080 237.417984,212.880997 
	C248.747330,212.730469 260.083221,212.665710 271.409424,212.907852 
	C275.303558,212.991089 276.189423,211.584213 276.105225,207.981186 
	C275.887299,198.654587 276.106598,189.318756 276.014374,179.987976 
	C275.894836,167.894958 277.861359,169.431000 264.568085,169.299484 
M247.323242,260.055054 
	C248.727509,259.971893 250.131790,259.888702 252.184341,259.767151 
	C251.140823,258.106598 250.596054,257.309296 250.121170,256.472321 
	C247.762573,252.315247 244.831955,248.452286 249.927750,243.768661 
	C251.121246,242.671722 250.542145,238.218109 249.307144,236.216843 
	C247.031693,232.529541 242.662643,232.455765 238.995987,233.642624 
	C237.642624,234.080688 236.751450,237.042816 236.321426,239.001282 
	C235.509857,242.697342 235.192871,246.501434 234.656097,250.258591 
	C234.177933,253.605530 233.680496,256.949707 233.097031,260.941986 
	C240.916397,259.881348 236.203644,252.674088 240.326904,249.833908 
	C245.213089,250.819931 244.606567,256.289551 247.323242,260.055054 
M94.239769,260.522339 
	C97.229950,260.492218 100.241837,260.658142 103.199097,260.330658 
	C104.305351,260.208160 105.284332,258.936157 106.321327,258.188263 
	C105.274612,257.725006 104.251984,256.950226 103.175888,256.867004 
	C101.274612,256.719971 99.340767,256.994110 97.037689,257.111450 
	C97.449043,253.803009 97.788063,251.076370 98.115585,248.442215 
	C105.289040,247.344681 105.289040,247.344681 105.877220,244.973785 
	C103.636215,244.729446 101.426636,244.488541 99.294594,244.256073 
	C98.744057,237.561234 98.933945,237.471436 105.238869,237.214844 
	C106.440819,237.165955 107.590263,235.826813 108.763931,235.082962 
	C108.488037,234.689941 108.212135,234.296921 107.936241,233.903900 
	C104.028030,233.903900 100.119812,233.903900 96.211349,233.903900 
	C95.002243,241.906189 93.798798,249.576218 92.736259,257.265717 
	C92.598969,258.259308 93.190735,259.353638 94.239769,260.522339 
M151.430801,241.931564 
	C148.099106,241.756454 144.764191,241.444733 141.438477,241.523178 
	C140.784561,241.538605 139.726807,242.998337 139.599533,243.897324 
	C138.353424,252.697922 137.265182,261.520874 136.106918,270.533051 
	C137.213593,270.533051 138.883118,270.767639 138.969421,270.497131 
	C139.939316,267.457153 140.665741,264.339508 141.456924,261.242584 
	C151.612686,259.284698 156.347565,250.853729 151.430801,241.931564 
M317.852478,258.671448 
	C321.698334,261.871582 322.249969,261.700165 323.115814,256.650665 
	C324.403168,249.142715 325.659058,241.626846 326.715973,234.084595 
	C326.880219,232.912598 325.916382,231.582520 325.474274,230.325546 
	C324.662323,231.453949 323.299622,232.510086 323.140350,233.724106 
	C322.635315,237.573288 321.514801,239.927704 317.218353,241.537537 
	C311.835938,243.554260 308.846466,248.592865 309.152954,254.678116 
	C309.249512,256.595337 310.136475,259.298157 311.536255,260.084473 
	C312.848907,260.821808 315.317902,259.500519 317.852478,258.671448 
M184.204544,259.323700 
	C183.284836,261.977692 182.427475,264.655426 181.428772,267.279358 
	C180.313660,270.209198 181.348541,271.214630 183.504318,270.968628 
	C188.048752,261.023376 192.367203,251.572678 197.243561,240.901001 
	C189.495682,242.291168 191.845139,250.473846 187.222229,252.696060 
	C183.974655,241.373932 183.974655,241.373932 181.375626,242.335159 
	C182.306381,247.710739 183.239136,253.097824 184.204544,259.323700 
M196.920120,256.577545 
	C198.587982,260.485992 201.559326,261.862671 205.316223,260.043030 
	C206.699417,259.373108 207.361969,257.215363 208.353226,255.736252 
	C207.877304,255.422180 207.401398,255.108124 206.925476,254.794067 
	C206.424484,255.174255 205.975815,255.695694 205.411423,255.904800 
	C204.285416,256.321991 202.958038,257.022400 201.980637,256.725983 
	C201.318832,256.525299 200.581390,254.652542 200.843369,253.838303 
	C201.137085,252.925415 202.450790,252.240906 203.446899,251.681992 
	C204.433136,251.128616 205.986267,251.166656 206.569962,250.397964 
	C207.988144,248.530273 209.298019,246.440247 209.977127,244.232346 
	C210.195770,243.521561 208.259140,241.237823 207.394623,241.284058 
	C205.274826,241.397400 202.074066,241.845078 201.330994,243.237579 
	C199.242416,247.151672 198.174301,251.610291 196.920120,256.577545 
M218.705994,251.534637 
	C222.140533,250.444641 224.873535,248.529190 224.575638,244.573013 
	C224.480530,243.310181 222.283249,240.992859 221.876541,241.161133 
	C219.022171,242.342026 216.340088,243.976517 213.711365,245.637634 
	C213.108047,246.018875 212.835693,247.036499 212.566620,247.815033 
	C211.245422,251.637802 209.659332,255.910675 213.294174,258.886993 
	C214.925354,260.222626 218.337708,259.726593 220.863754,259.419617 
	C221.636536,259.325684 222.149872,257.096649 222.681778,256.043793 
	C219.680939,256.043793 216.974503,256.826202 215.980423,255.855331 
	C214.585938,254.493393 214.852341,252.013824 218.705994,251.534637 
M253.545319,249.428421 
	C253.156265,252.997253 251.701096,257.190521 255.468613,259.403595 
	C257.347412,260.507233 260.550323,259.732758 263.030670,259.215210 
	C263.810852,259.052429 264.188782,256.961945 264.750854,255.753784 
	C258.196411,257.950775 257.418182,257.576691 257.580566,252.506119 
	C259.608978,251.806229 261.873352,251.496979 263.548218,250.336731 
	C266.080811,248.582336 268.271942,245.855652 265.913300,242.816635 
	C263.524658,239.738983 260.265350,240.394882 257.756775,243.037598 
	C256.198578,244.679108 255.136765,246.791809 253.545319,249.428421 
M164.261246,251.803223 
	C164.229156,258.532288 165.675919,260.798431 169.963730,260.735382 
	C174.638733,260.666656 178.353470,256.496338 178.751755,250.426651 
	C178.999817,246.646469 179.373367,242.480103 174.400635,241.113342 
	C170.292496,239.984192 166.662842,243.036362 164.738297,249.033615 
	C164.537674,249.658768 164.471558,250.327087 164.261246,251.803223 
M285.157379,243.585434 
	C283.877045,246.579651 281.740540,249.529922 281.583923,252.581818 
	C281.455719,255.079697 283.069672,258.896851 285.050964,259.917999 
	C286.932220,260.887634 291.383972,259.860809 292.753204,258.149689 
	C294.944916,255.410767 296.549561,251.385910 296.565918,247.896011 
	C296.597870,241.085495 291.471893,239.067078 285.157379,243.585434 
M157.121307,250.206833 
	C156.583496,253.548996 156.045685,256.891144 155.507874,260.233307 
	C155.877228,260.468048 156.246582,260.702820 156.615936,260.937561 
	C157.651764,260.233734 159.468048,259.654724 159.603607,258.806976 
	C161.081772,249.562897 162.296951,240.276764 163.583725,231.002075 
	C163.137421,230.694977 162.691116,230.387863 162.244827,230.080750 
	C161.330048,231.100357 159.812820,232.010056 159.603363,233.158310 
	C158.625214,238.520386 158.007996,243.948303 157.121307,250.206833 
M336.831573,244.779755 
	C338.926910,243.698502 339.288055,241.842621 336.941467,241.488480 
	C334.637177,241.140732 331.449829,241.735275 329.861389,243.215866 
	C328.733490,244.267197 329.300354,247.538605 329.721344,249.700241 
	C329.976868,251.012238 331.555969,252.010635 332.256653,253.303696 
	C333.624512,255.828110 332.638977,257.097137 329.861328,256.960388 
	C328.811279,256.908691 327.775543,256.566376 326.733246,256.356537 
	C326.409760,256.839508 326.086243,257.322479 325.762756,257.805450 
	C327.041901,258.827454 328.250946,260.598358 329.613861,260.725891 
	C333.175903,261.059265 336.639252,259.773560 336.700897,255.653976 
	C336.735840,253.316238 335.106323,250.816437 333.818726,248.629654 
	C332.077087,245.671631 332.956146,244.700882 336.831573,244.779755 
M273.042267,247.748032 
	C274.978973,246.750641 276.967926,245.839767 278.828400,244.716095 
	C279.648895,244.220551 280.208344,243.292831 280.886322,242.561340 
	C280.132965,242.057953 279.433746,241.248367 278.616974,241.104080 
	C275.024933,240.469528 270.300842,244.006790 268.449402,248.503113 
	C266.705780,252.737671 266.920166,256.660889 270.626404,259.738007 
	C273.617889,262.221680 277.370758,261.150574 278.406372,257.736664 
	C271.651306,256.352600 270.927338,255.185272 273.042267,247.748032 
M304.627106,248.491287 
	C306.307037,246.594681 307.986969,244.698074 309.713837,242.748505 
	C303.429688,239.274658 300.603943,240.721313 300.127777,247.013214 
	C299.879883,250.289139 298.839294,253.502960 298.555817,256.779358 
	C298.446533,258.042572 299.443481,259.401459 299.936432,260.716736 
	C300.881256,259.622375 302.286255,258.669495 302.675385,257.404205 
	C303.491028,254.751770 303.772156,251.934952 304.627106,248.491287 
z"/>
<path fill="#B4B88D" opacity="1.000000" stroke="none" 
	d="
M265.044312,169.299866 
	C277.861359,169.431000 275.894836,167.894958 276.014374,179.987976 
	C276.106598,189.318756 275.887299,198.654587 276.105225,207.981186 
	C276.189423,211.584213 275.303558,212.991089 271.409424,212.907852 
	C260.083221,212.665710 248.747330,212.730469 237.417984,212.880997 
	C234.251373,212.923080 232.985565,212.084961 233.035263,208.697372 
	C233.206375,197.035248 233.176331,185.368271 233.051163,173.704987 
	C233.016785,170.502090 234.095596,169.060501 237.376801,169.272537 
	C239.699951,169.422653 242.040894,169.283386 244.373642,169.303375 
	C246.920914,169.325195 249.490128,169.665161 249.365814,165.705368 
	C249.254242,162.151459 248.103287,159.892395 244.200012,159.888016 
	C238.867630,159.882019 233.535233,159.878723 228.202850,159.878494 
	C215.871674,159.877945 203.540024,159.938873 191.209656,159.838699 
	C188.196472,159.814224 185.870636,160.486221 185.134949,163.679932 
	C184.376907,166.970734 184.416595,169.505615 189.168518,169.373703 
	C198.867249,169.104492 197.854355,168.323135 197.882416,178.242630 
	C197.914352,189.533234 197.889801,200.823990 197.889801,212.822281 
	C191.087097,212.822281 184.815460,212.822433 178.543823,212.822235 
	C172.044968,212.822037 165.543610,212.715790 159.048370,212.869019 
	C156.119736,212.938095 154.873322,212.112549 154.912140,208.943710 
	C155.057068,197.114227 155.032013,185.281357 154.928238,173.451019 
	C154.901901,170.445892 156.030945,169.204529 159.019135,169.276566 
	C163.349136,169.380920 167.688385,169.174850 172.014542,169.340317 
	C174.977768,169.453659 176.032898,168.437531 176.181183,165.361130 
	C176.659134,155.446747 181.474884,151.104782 191.497147,151.079086 
	C196.662872,151.065842 201.832367,150.956116 206.993210,151.115265 
	C210.826096,151.233459 213.459457,151.261353 213.466248,145.817581 
	C213.473434,140.052078 210.268326,140.746414 206.753494,140.813507 
	C204.921158,140.848495 203.064056,140.631210 201.259323,140.857040 
	C197.120361,141.374908 196.161057,139.413849 196.223541,135.635452 
	C196.408142,124.473778 196.406891,113.305183 196.223724,102.143478 
	C196.163284,98.460236 197.349335,97.164177 201.090439,97.226730 
	C212.418610,97.416153 223.754440,97.181580 235.080551,97.424881 
	C236.670151,97.459023 239.565231,99.210541 239.588394,100.219200 
	C239.893570,113.504875 239.791611,126.799911 239.791611,140.821228 
	C235.212341,140.821228 231.095062,141.038803 227.011978,140.758347 
	C223.142944,140.492599 222.604782,142.475296 222.780609,145.600571 
	C222.938675,148.409866 222.176010,151.389404 226.831345,151.144897 
	C232.481354,150.848129 238.159134,151.050140 243.824600,151.085266 
	C252.173492,151.137024 258.180206,155.958282 258.571533,164.082047 
	C258.797729,168.777664 260.552551,169.868881 265.044312,169.299866 
z"/>
<path fill="#BEC19C" opacity="1.000000" stroke="none" 
	d="
M247.143478,259.748108 
	C244.606567,256.289551 245.213089,250.819931 240.326904,249.833908 
	C236.203644,252.674088 240.916397,259.881348 233.097031,260.941986 
	C233.680496,256.949707 234.177933,253.605530 234.656097,250.258591 
	C235.192871,246.501434 235.509857,242.697342 236.321426,239.001282 
	C236.751450,237.042816 237.642624,234.080688 238.995987,233.642624 
	C242.662643,232.455765 247.031693,232.529541 249.307144,236.216843 
	C250.542145,238.218109 251.121246,242.671722 249.927750,243.768661 
	C244.831955,248.452286 247.762573,252.315247 250.121170,256.472321 
	C250.596054,257.309296 251.140823,258.106598 252.184341,259.767151 
	C250.131790,259.888702 248.727509,259.971893 247.143478,259.748108 
M246.206024,243.602127 
	C245.968719,241.501099 246.027191,239.294342 245.334366,237.356140 
	C245.090408,236.673721 241.976028,236.234360 241.915283,236.385315 
	C240.757019,239.264191 239.859329,242.247910 238.907608,245.209885 
	C239.290680,245.618835 239.673752,246.027771 240.056839,246.436722 
	C241.975021,245.727432 243.893204,245.018158 246.206024,243.602127 
z"/>
<path fill="#8A8B80" opacity="1.000000" stroke="none" 
	d="
M93.842278,260.461823 
	C93.190735,259.353638 92.598969,258.259308 92.736259,257.265717 
	C93.798798,249.576218 95.002243,241.906189 96.211349,233.903900 
	C100.119812,233.903900 104.028030,233.903900 107.936241,233.903900 
	C108.212135,234.296921 108.488037,234.689941 108.763931,235.082962 
	C107.590263,235.826813 106.440819,237.165955 105.238869,237.214844 
	C98.933945,237.471436 98.744057,237.561234 99.294594,244.256073 
	C101.426636,244.488541 103.636215,244.729446 105.877220,244.973785 
	C105.289040,247.344681 105.289040,247.344681 98.115585,248.442215 
	C97.788063,251.076370 97.449043,253.803009 97.037689,257.111450 
	C99.340767,256.994110 101.274612,256.719971 103.175888,256.867004 
	C104.251984,256.950226 105.274612,257.725006 106.321335,258.188263 
	C105.284332,258.936157 104.305351,260.208160 103.199097,260.330658 
	C100.241837,260.658142 97.229950,260.492218 93.842278,260.461823 
z"/>
<path fill="#86887C" opacity="1.000000" stroke="none" 
	d="
M151.722275,242.188293 
	C156.347565,250.853729 151.612686,259.284698 141.457275,261.242676 
	C140.665741,264.339508 139.939316,267.457153 138.969421,270.497131 
	C138.883118,270.767639 137.213593,270.533051 136.106918,270.533051 
	C137.265182,261.520874 138.353424,252.697922 139.599533,243.897324 
	C139.726807,242.998337 140.784561,241.538605 141.438477,241.523178 
	C144.764191,241.444733 148.099106,241.756454 151.722275,242.188293 
M150.091034,247.519302 
	C148.349991,244.045517 145.941330,243.565781 144.305634,246.839111 
	C142.710052,250.032196 142.213104,253.774261 140.921188,258.393036 
	C147.772903,256.816498 149.608856,253.152267 150.091034,247.519302 
z"/>
<path fill="#BEC29D" opacity="1.000000" stroke="none" 
	d="
M317.565247,258.878296 
	C315.317902,259.500519 312.848907,260.821808 311.536255,260.084473 
	C310.136475,259.298157 309.249512,256.595337 309.152954,254.678116 
	C308.846466,248.592865 311.835938,243.554260 317.218353,241.537537 
	C321.514801,239.927704 322.635315,237.573288 323.140350,233.724106 
	C323.299622,232.510086 324.662323,231.453949 325.474243,230.325531 
	C325.916382,231.582520 326.880219,232.912598 326.715973,234.084595 
	C325.659058,241.626846 324.403168,249.142715 323.115814,256.650665 
	C322.249969,261.700165 321.698334,261.871582 317.565247,258.878296 
M316.700378,244.963577 
	C315.254364,247.837799 313.657959,250.651901 312.467987,253.628494 
	C312.170227,254.373352 312.960480,255.864655 313.682190,256.573608 
	C314.040680,256.925720 315.911713,256.562805 316.183716,256.043884 
	C317.909882,252.750702 319.380402,249.323532 320.935211,245.940536 
	C319.731476,245.464005 318.527710,244.987457 316.700378,244.963577 
z"/>
<path fill="#7C7E72" opacity="1.000000" stroke="none" 
	d="
M117.005447,243.574844 
	C121.952667,240.247910 122.361977,240.271042 126.111420,244.223358 
	C127.148804,243.474030 128.125198,242.538055 129.283081,241.975754 
	C132.733490,240.300156 134.623474,241.640671 134.353607,245.509750 
	C134.073441,249.526276 133.879211,253.560593 133.303436,257.537323 
	C133.136581,258.689819 131.786774,259.671021 130.979263,260.730774 
	C130.482422,260.512421 129.985580,260.294067 129.488724,260.075714 
	C130.076019,255.168259 130.663315,250.260818 131.309708,244.859619 
	C123.300575,247.530853 125.981270,256.774841 119.457893,261.646240 
	C120.181458,255.379944 120.735085,250.585373 121.399445,244.831772 
	C119.706833,245.462540 118.529793,245.901154 116.913086,246.480377 
	C116.650757,245.605591 116.828102,244.590210 117.005447,243.574844 
z"/>
<path fill="#8B8D82" opacity="1.000000" stroke="none" 
	d="
M184.188217,258.904297 
	C183.239136,253.097824 182.306381,247.710739 181.375626,242.335159 
	C183.974655,241.373932 183.974655,241.373932 187.227783,252.700806 
	C191.845139,250.473846 189.495682,242.291168 197.243561,240.901001 
	C192.367203,251.572678 188.048752,261.023376 183.504318,270.968628 
	C181.348541,271.214630 180.313660,270.209198 181.428772,267.279358 
	C182.427475,264.655426 183.284836,261.977692 184.188217,258.904297 
z"/>
<path fill="#8B8C81" opacity="1.000000" stroke="none" 
	d="
M196.811951,256.215851 
	C198.174301,251.610291 199.242416,247.151672 201.330994,243.237579 
	C202.074066,241.845078 205.274826,241.397400 207.394623,241.284058 
	C208.259140,241.237823 210.195770,243.521561 209.977127,244.232346 
	C209.298019,246.440247 207.988144,248.530273 206.569962,250.397964 
	C205.986267,251.166656 204.433136,251.128616 203.446899,251.681992 
	C202.450790,252.240906 201.137085,252.925415 200.843369,253.838303 
	C200.581390,254.652542 201.318832,256.525299 201.980637,256.725983 
	C202.958038,257.022400 204.285416,256.321991 205.411423,255.904800 
	C205.975815,255.695694 206.424484,255.174255 206.925476,254.794067 
	C207.401398,255.108124 207.877304,255.422180 208.353226,255.736252 
	C207.361969,257.215363 206.699417,259.373108 205.316223,260.043030 
	C201.559326,261.862671 198.587982,260.485992 196.811951,256.215851 
z"/>
<path fill="#8C8E83" opacity="1.000000" stroke="none" 
	d="
M218.298889,251.611404 
	C214.852341,252.013824 214.585938,254.493393 215.980423,255.855331 
	C216.974503,256.826202 219.680939,256.043793 222.681778,256.043793 
	C222.149872,257.096649 221.636536,259.325684 220.863754,259.419617 
	C218.337708,259.726593 214.925354,260.222626 213.294174,258.886993 
	C209.659332,255.910675 211.245422,251.637802 212.566620,247.815033 
	C212.835693,247.036499 213.108047,246.018875 213.711365,245.637634 
	C216.340088,243.976517 219.022171,242.342026 221.876541,241.161133 
	C222.283249,240.992859 224.480530,243.310181 224.575638,244.573013 
	C224.873535,248.529190 222.140533,250.444641 218.298889,251.611404 
z"/>
<path fill="#C1C4A1" opacity="1.000000" stroke="none" 
	d="
M253.698730,249.060715 
	C255.136765,246.791809 256.198578,244.679108 257.756775,243.037598 
	C260.265350,240.394882 263.524658,239.738983 265.913300,242.816635 
	C268.271942,245.855652 266.080811,248.582336 263.548218,250.336731 
	C261.873352,251.496979 259.608978,251.806229 257.580566,252.506119 
	C257.418182,257.576691 258.196411,257.950775 264.750854,255.753784 
	C264.188782,256.961945 263.810852,259.052429 263.030670,259.215210 
	C260.550323,259.732758 257.347412,260.507233 255.468613,259.403595 
	C251.701096,257.190521 253.156265,252.997253 253.698730,249.060715 
z"/>
<path fill="#898A7F" opacity="1.000000" stroke="none" 
	d="
M164.302139,251.389313 
	C164.471558,250.327087 164.537674,249.658768 164.738297,249.033615 
	C166.662842,243.036362 170.292496,239.984192 174.400635,241.113342 
	C179.373367,242.480103 178.999817,246.646469 178.751755,250.426651 
	C178.353470,256.496338 174.638733,260.666656 169.963730,260.735382 
	C165.675919,260.798431 164.229156,258.532288 164.302139,251.389313 
M170.331131,257.361755 
	C174.379395,255.566452 176.820007,249.587906 174.936523,245.879776 
	C173.631012,243.309525 171.864426,243.792450 170.156738,245.448563 
	C167.362213,248.158691 167.086517,253.499359 170.331131,257.361755 
z"/>
<path fill="#BFC29E" opacity="1.000000" stroke="none" 
	d="
M285.423340,243.310226 
	C291.471893,239.067078 296.597870,241.085495 296.565918,247.896011 
	C296.549561,251.385910 294.944916,255.410767 292.753204,258.149689 
	C291.383972,259.860809 286.932220,260.887634 285.050964,259.917999 
	C283.069672,258.896851 281.455719,255.079697 281.583923,252.581818 
	C281.740540,249.529922 283.877045,246.579651 285.423340,243.310226 
M286.069305,248.817566 
	C285.147217,252.015762 283.804871,255.659576 287.807739,257.254669 
	C288.520691,257.538788 291.762207,253.194153 292.702637,250.579208 
	C293.315918,248.873917 291.880981,246.432007 291.363586,244.320068 
	C289.696472,245.579880 288.029358,246.839691 286.069305,248.817566 
z"/>
<path fill="#8B8C81" opacity="1.000000" stroke="none" 
	d="
M157.191528,249.779755 
	C158.007996,243.948303 158.625214,238.520386 159.603363,233.158310 
	C159.812820,232.010056 161.330048,231.100357 162.244827,230.080750 
	C162.691116,230.387863 163.137421,230.694977 163.583725,231.002075 
	C162.296951,240.276764 161.081772,249.562897 159.603607,258.806976 
	C159.468048,259.654724 157.651764,260.233734 156.615936,260.937561 
	C156.246582,260.702820 155.877228,260.468048 155.507874,260.233307 
	C156.045685,256.891144 156.583496,253.548996 157.191528,249.779755 
z"/>
<path fill="#C1C4A1" opacity="1.000000" stroke="none" 
	d="
M336.449799,244.807602 
	C332.956146,244.700882 332.077087,245.671631 333.818726,248.629654 
	C335.106323,250.816437 336.735840,253.316238 336.700897,255.653976 
	C336.639252,259.773560 333.175903,261.059265 329.613861,260.725891 
	C328.250946,260.598358 327.041901,258.827454 325.762756,257.805450 
	C326.086243,257.322479 326.409760,256.839508 326.733246,256.356537 
	C327.775543,256.566376 328.811279,256.908691 329.861328,256.960388 
	C332.638977,257.097137 333.624512,255.828110 332.256653,253.303696 
	C331.555969,252.010635 329.976868,251.012238 329.721344,249.700241 
	C329.300354,247.538605 328.733490,244.267197 329.861389,243.215866 
	C331.449829,241.735275 334.637177,241.140732 336.941467,241.488480 
	C339.288055,241.842621 338.926910,243.698502 336.449799,244.807602 
z"/>
<path fill="#C1C4A1" opacity="1.000000" stroke="none" 
	d="
M272.856354,248.117920 
	C270.927338,255.185272 271.651306,256.352600 278.406372,257.736664 
	C277.370758,261.150574 273.617889,262.221680 270.626404,259.738007 
	C266.920166,256.660889 266.705780,252.737671 268.449402,248.503113 
	C270.300842,244.006790 275.024933,240.469528 278.616974,241.104080 
	C279.433746,241.248367 280.132965,242.057953 280.886322,242.561340 
	C280.208344,243.292831 279.648895,244.220551 278.828400,244.716095 
	C276.967926,245.839767 274.978973,246.750641 272.856354,248.117920 
z"/>
<path fill="#BEC29D" opacity="1.000000" stroke="none" 
	d="
M304.449951,248.838455 
	C303.772156,251.934952 303.491028,254.751770 302.675385,257.404205 
	C302.286255,258.669495 300.881256,259.622375 299.936401,260.716736 
	C299.443481,259.401459 298.446533,258.042572 298.555817,256.779358 
	C298.839294,253.502960 299.879883,250.289139 300.127777,247.013214 
	C300.603943,240.721313 303.429688,239.274658 309.713837,242.748505 
	C307.986969,244.698074 306.307037,246.594681 304.449951,248.838455 
z"/>
<path fill="#898A7F" opacity="1.000000" stroke="none" 
	d="
M116.650726,243.415741 
	C116.828102,244.590210 116.650757,245.605591 116.699326,246.793137 
	C114.456284,251.307327 114.946625,257.123535 111.268867,260.863373 
	C110.723648,260.676880 110.178421,260.490387 109.633202,260.303894 
	C110.309189,254.346497 110.515549,248.277557 111.891197,242.486359 
	C112.445305,240.153641 115.085144,241.104660 116.650726,243.415741 
z"/>
<path fill="#F4F3EB" opacity="1.000000" stroke="none" 
	d="
M246.008698,243.955505 
	C243.893204,245.018158 241.975021,245.727432 240.056839,246.436722 
	C239.673752,246.027771 239.290680,245.618835 238.907608,245.209885 
	C239.859329,242.247910 240.757019,239.264191 241.915283,236.385315 
	C241.976028,236.234360 245.090408,236.673721 245.334366,237.356140 
	C246.027191,239.294342 245.968719,241.501099 246.008698,243.955505 
z"/>
<path fill="#EFEEE9" opacity="1.000000" stroke="none" 
	d="
M150.085602,247.938690 
	C149.608856,253.152267 147.772903,256.816498 140.921188,258.393036 
	C142.213104,253.774261 142.710052,250.032196 144.305634,246.839111 
	C145.941330,243.565781 148.349991,244.045517 150.085602,247.938690 
z"/>
<path fill="#F4F3EB" opacity="1.000000" stroke="none" 
	d="
M317.012177,244.737244 
	C318.527710,244.987457 319.731476,245.464005 320.935211,245.940536 
	C319.380402,249.323532 317.909882,252.750702 316.183716,256.043884 
	C315.911713,256.562805 314.040680,256.925720 313.682190,256.573608 
	C312.960480,255.864655 312.170227,254.373352 312.467987,253.628494 
	C313.657959,250.651901 315.254364,247.837799 317.012177,244.737244 
z"/>
<path fill="#EFEEE9" opacity="1.000000" stroke="none" 
	d="
M169.905609,257.283630 
	C167.086517,253.499359 167.362213,248.158691 170.156738,245.448563 
	C171.864426,243.792450 173.631012,243.309525 174.936523,245.879776 
	C176.820007,249.587906 174.379395,255.566452 169.905609,257.283630 
z"/>
<path fill="#F4F3EB" opacity="1.000000" stroke="none" 
	d="
M286.215759,248.458527 
	C288.029358,246.839691 289.696472,245.579880 291.363586,244.320068 
	C291.880981,246.432007 293.315918,248.873917 292.702637,250.579208 
	C291.762207,253.194153 288.520691,257.538788 287.807739,257.254669 
	C283.804871,255.659576 285.147217,252.015762 286.215759,248.458527 
z"/>
</svg>